<?xml version="1.0" standalone="no"?>
<!DOCTYPE svg PUBLIC "-//W3C//DTD SVG 1.1//EN" "http://www.w3.org/Graphics/SVG/1.1/DTD/svg11.dtd" >
<svg xmlns="http://www.w3.org/2000/svg">
<metadata>
Created by FontForge 20120731 at Mon Sep 12 09:58:34 2016
 By admin
</metadata>
<defs>
<font id="iconfont" horiz-adv-x="1024" >
  <font-face 
    font-family="iconfont"
    font-weight="500"
    font-stretch="normal"
    units-per-em="1024"
    panose-1="2 0 6 3 0 0 0 0 0 0"
    ascent="896"
    descent="-128"
    x-height="792"
    bbox="-0.321171 -148 4201 896.56"
    underline-thickness="50"
    underline-position="-100"
    unicode-range="U+0078-E6D6"
  />
<missing-glyph horiz-adv-x="374" 
d="M34 0v682h272v-682h-272zM68 34h204v614h-204v-614z" />
    <glyph glyph-name=".notdef" horiz-adv-x="374" 
d="M34 0v682h272v-682h-272zM68 34h204v614h-204v-614z" />
    <glyph glyph-name=".null" horiz-adv-x="0" 
 />
    <glyph glyph-name="nonmarkingreturn" horiz-adv-x="341" 
 />
    <glyph glyph-name="x" unicode="x" horiz-adv-x="1001" 
d="M281 543q-27 -1 -53 -1h-83q-18 0 -36.5 -6t-32.5 -18.5t-23 -32t-9 -45.5v-76h912v41q0 16 -0.5 30t-0.5 18q0 13 -5 29t-17 29.5t-31.5 22.5t-49.5 9h-133v-97h-438v97zM955 310v-52q0 -23 0.5 -52t0.5 -58t-10.5 -47.5t-26 -30t-33 -16t-31.5 -4.5q-14 -1 -29.5 -0.5
t-29.5 0.5h-32l-45 128h-439l-44 -128h-29h-34q-20 0 -45 1q-25 0 -41 9.5t-25.5 23t-13.5 29.5t-4 30v167h911zM163 247q-12 0 -21 -8.5t-9 -21.5t9 -21.5t21 -8.5q13 0 22 8.5t9 21.5t-9 21.5t-22 8.5zM316 123q-8 -26 -14 -48q-5 -19 -10.5 -37t-7.5 -25t-3 -15t1 -14.5
t9.5 -10.5t21.5 -4h37h67h81h80h64h36q23 0 34 12t2 38q-5 13 -9.5 30.5t-9.5 34.5q-5 19 -11 39h-368zM336 498v228q0 11 2.5 23t10 21.5t20.5 15.5t34 6h188q31 0 51.5 -14.5t20.5 -52.5v-227h-327z" />
    <glyph glyph-name="uniE600" unicode="&#xe600;" 
d="M944 12h1l-171 170q87 110 87 249q0 108 -53.5 200t-145.5 145.5t-200 53.5t-200 -53.5t-145.5 -145.5t-53.5 -200.5t53.5 -200t145.5 -145t200 -53.5q143 0 253 91l167 -167q1 -2 3 -4q12 -12 29.5 -12t30 12.5t12.5 30t-13 29.5zM113 430.5q0 94.5 46.5 175t127 127.5
t175 47t175 -47t127.5 -127.5t47 -175t-47 -175t-127.5 -127t-175 -46.5t-175 46.5t-127 127t-46.5 175z" />
    <glyph glyph-name="uniE601" unicode="&#xe601;" 
d="M5 539q0 30 10 43t44 13h142v-563h-61h-48q-32 1 -33 1q-30 -1 -42 10t-12 43v162q0 12 4 18.5t16 8.5q4 0 12 4q8 3 16 10q8 8 13 20q5 11 5 28q0 26 -13 41q-14 15 -30 17q-12 2 -17.5 7t-5.5 18v119zM97 646v14v1v1v13q0 23 17 42t37 19h152v-90h-206zM997 401
q-9 -2 -12 -9q-4 -8 -4 -16q0 -9 4 -18q4 -8 12 -12q9 -3 14 -13q5 -11 6 -22q0 -11 -3 -21t-10 -15q-22 -13 -22 -30q0 -18 22 -34q4 -3 8 -12q4 -10 4 -19t-4 -15q-5 -7 -16 -7h-59q-7 0 -7.5 1t1.5 4t6 6q3 3 5 8q6 16 0 27q-5 12 -19 19q-9 5 -12 15q-4 9 -3 19
q0 11 3.5 18.5t9.5 11.5q9 3 13 12q5 9 5 19t-3 19q-4 8 -10 12q-9 4 -14 13t-5 20.5t4 21.5q5 11 15 18q6 4 11 12q4 7 5 17q0 8 -4 17q-3 9 -14 15q-11 5 -16 16t-5 22t5 21q5 11 14 16q19 10 21 28q1 17 -3 32q-4 11 -13 20q-10 9 -26 9h-530v89h622q8 0 13 -5
q6 -6 7.5 -14t-1.5 -16q-2 -9 -10 -14q-7 -6 -12 -15q-4 -8 -5 -19q-1 -9 2 -19q4 -9 13 -14q12 -7 18 -18.5t6 -23.5t-6 -22t-17 -15q-13 -5 -18 -13t-6 -18t4 -20t16 -16q12 -7 16 -18q5 -11 5 -23q-1 -11 -6 -21q-5 -9 -15 -11zM854 418q-13 -3 -21 -12q-7 -10 -7 -20
q-1 -10 5 -21q7 -10 18 -14q12 -5 17 -14t6 -19t-3.5 -19t-13.5 -14q-28 -14 -29 -32q-1 -19 21 -31q10 -5 16 -14t7 -20q0 -11 -4 -19q-4 -9 -14 -12q-14 -4 -21 -13t-7.5 -19t5.5 -20t19 -17q9 -4 13 -14t3 -19q-2 -9 -6 -16q-5 -7 -14 -7h-578v563h584q9 0 14 -7t6 -16
q0 -9 -4 -18q-5 -9 -14.5 -12.5t-16.5 -11.5q-5 -8 -7 -17q-1 -10 5 -19q5 -9 19 -14q10 -4 16 -13q6 -10 6 -19q1 -9 -4 -18q-5 -8 -16 -12zM587 343q-5 0 -11 1t-3 7q7 11 11 15q10 15 21 29q2 4 9.5 14t11.5 15q11 15 12 17q6 9 -6 21q-2 2 -9 7t-12 7q-9 3 -13 1
q-4 -3 -9 -10q-8 -11 -12 -16q-2 -5 -18 -28q-8 -12 -19 -27q-8 -12 -9 -14q-2 -4 -8 -3t-8 6q-3 3 -10 13q-10 11 -19 24q-6 8 -20 25q-8 11 -12 17q-10 19 -21 12q-8 -4 -14 -10q-6 -5 -12 -8q-11 -8 -3 -20q20 -24 33 -42q16 -21 23 -31q11 -13 14 -17q2 -4 -5 -4h-13
q-7 0 -16 -1q-11 0 -20 1q-9 0 -14 -4.5t-3 -11.5q1 -5 1 -13v-14q0 -6 3 -6.5t8 -0.5h64q13 0 13 -5v-22q0 -5 -2 -5h-5h-12h-22h-22h-13q-6 1 -9 -4q-2 -4 -3 -10t0 -10q1 -5 1 -9q0 -15 14 -15h67q5 0 6 -1q2 -2 2 -8q1 -6 0 -20q-1 -18 -1 -19q0 -13 15 -13h35q9 0 9 6
v8v37q0 12 10 12h10h17q13 1 18 1h15q15 0 15 11v25q0 10 -11 10h-64q-11 -2 -11 4q0 4 -1 9v9q0 5 4 7t8 2h65q11 0 11 8v27q0 5 -3.5 9.5t-9.5 4.5h-38zM587 343z" />
    <glyph glyph-name="uniE602" unicode="&#xe602;" 
d="M906 544h79v280q0 17 -11.5 28.5t-28.5 11.5h-275v-80h236v-240zM118 784h236v80h-275q-17 0 -28.5 -11.5t-11.5 -28.5v-280h79v240zM118 224h-79v-280q0 -17 11.5 -28.5t28.5 -11.5h275v80h-236v240zM906 -16h-236v-80h275q17 0 28.5 11.5t11.5 28.5v280h-79v-240z
M985 424h-946q-16 0 -27.5 -11.5t-11.5 -28.5t11.5 -28.5t27.5 -11.5h946q16 0 27.5 11.5t11.5 28.5t-11.5 28.5t-27.5 11.5z" />
    <glyph glyph-name="uniE603" unicode="&#xe603;" 
d="M293.5 496q-27.5 0 -47 -19.5t-19.5 -47t19.5 -47t47 -19.5t47 19.5t19.5 47t-19.5 47t-47 19.5zM516.5 496q-27.5 0 -47 -19.5t-19.5 -47t19.5 -47t47 -19.5t47 19.5t19.5 47t-19.5 47t-47 19.5zM516 830q-133 0 -245.5 -53.5t-178 -146t-65.5 -200.5q0 -80 36.5 -152
t101.5 -127l-49 -211l263 105q68 -16 137 -16q133 0 246 53.5t178.5 146t65.5 201t-65.5 201t-178.5 146t-246 53.5zM516 73q-64 0 -127 15q-5 2 -10 2q-9 0 -17 -4l-183 -73l29 127q7 27 -14 45q-60 50 -91.5 113t-31.5 132q0 96 59.5 178t162.5 130t223.5 48t223 -48
t162.5 -130t60 -178.5t-60 -178.5t-162.5 -130t-223.5 -48zM739 496q-28 0 -47.5 -19.5t-19.5 -47t19.5 -47t47.5 -19.5t47.5 19.5t19.5 47t-19.5 47t-47.5 19.5z" />
    <glyph glyph-name="uniE604" unicode="&#xe604;" 
d="M1019.5 262q-10.5 -43 -42 -74t-73.5 -41q9 -42 -5 -83.5t-48 -70t-78.5 -35.5t-83.5 8q-18 -39 -53.5 -64.5t-80.5 -29t-84.5 16t-62.5 55.5q-38 -22 -81.5 -22t-83.5 23q-38 23 -58.5 61.5t-18.5 80.5q-43 4 -79 29.5t-54 66.5q-17 42 -11 84.5t33 75.5
q-33 28 -47 69.5t-4 84.5t40.5 74.5t72.5 42.5q-10 42 3 83.5t47 71t78 37.5t83 -7q17 39 52.5 65.5t80 31t84.5 -14.5t64 -54q37 22 80.5 23t84.5 -21q42 -24 63 -66t16 -88q47 -1 86 -27.5t57 -71.5q17 -42 10 -84t-35 -75q32 -29 45.5 -70.5t3 -84.5zM273 120
q17 -2 39 25q33 30 64 61l3 3l2 2q3 -2 3 -5v-51q2 -35 59 -35h144q72 -5 82 103h-23q-5 -34 -32 -36h-125q-19 2 -19 17v22q-3 44 -37 47q-17 0 -35 -22q-44 -45 -64 -69q-9 -5 -4 5q9 26 32 64q1 3 3.5 8t3.5 6h-91q-34 -76 -37 -108q3 -34 32 -37zM772 622h-219v37h-83
v-37h-217v-32h217v-32h-187v-157h187v-45q-155 0 -229 8l17 -89q153 12 403 59q15 -17 15 -22q0 -12 -17 -20l2 -12q86 5 93 52q5 19 -51 71q37 8 37 44v60v4q-5 28 -40 47h-147v32h219v32zM727 248q-19 22 -39 20q-15 0 -56 -17q-20 -8 -30 -8q-15 -7 -42 59l-73 -32
q32 -71 56 -64q10 0 32 13q64 27 79 27q39 9 37 -128l93 44q-25 52 -57 86zM369 465h101v-32h-101v32zM369 529h101v-35h-101v35zM656 509v-15h-103v35h86q17 0 17 -20zM656 450q0 -17 -17 -17h-86v32h103v-15zM614 379q15 -13 23 -20h-37q-32 -3 -47 -3v45h120z" />
    <glyph glyph-name="uniE605" unicode="&#xe605;" horiz-adv-x="1176" 
d="M944 627l-1 1q-66 116 -184 187.5t-256 71.5q-103 0 -196 -40t-160 -107.5t-107 -160.5t-40 -195q0 -179 112 -316.5t284 -174.5q52 -12 107 -12q11 0 19.5 8.5t8.5 20.5t-8.5 20t-19.5 8q-49 0 -95 10q-153 34 -252 156t-99 280q0 91 35 173.5t95 142t142.5 95
t173.5 35.5q121 0 227.5 -64t165.5 -170q0 -1 1 -1q8 -12 23 -12q11 0 19.5 8.5t8.5 20.5q0 8 -4 15zM716 47l324 445q13 19 36.5 22.5t42.5 -10.5l15 -11q19 -14 23 -37t-10 -42l-323 -445zM705 31l108 -78l-130 -65zM293.5 469q27.5 0 47 19.5t19.5 47t-19.5 47t-47 19.5
t-46.5 -19.5t-19 -47t19 -47t46.5 -19.5zM692.5 469q27.5 0 47 19.5t19.5 47t-19.5 47t-47 19.5t-47 -19.5t-19.5 -47t19.5 -47t47 -19.5zM238 269q26 -88 99.5 -143t165.5 -55q91 0 164.5 55t98.5 142q5 15 -2.5 29t-22.5 18.5t-29 -3t-18 -22.5q-19 -64 -72 -103.5
t-119.5 -39.5t-119.5 40t-72 103q-4 15 -18 22.5t-29 3.5t-22.5 -18t-3.5 -29z" />
    <glyph glyph-name="uniE606" unicode="&#xe606;" 
d="M136 182q66 7 133 9q-40 2 -81 7q-18 2 -30 13.5t-12 27.5v101q0 16 12 27.5t30 13.5q122 12 248 9q-47 -75 -47 -165q0 -129 91 -220l11 -11q-175 -14 -355 5q-18 2 -30 13.5t-12 28.5v100q0 17 12 28.5t30 12.5zM679 437q28 5 52 -1q-1 -4 -1.5 -13t-1.5 -13
q-24 3 -46 0q-1 10 -3 27zM774 271h-60v10q0 16 -2 20.5t-9 4.5q-5 0 -8 -4t-3 -13q0 -14 6 -19q5 -6 32 -22q23 -14 31.5 -21.5t14 -21t5.5 -33.5q0 -32 -15.5 -50.5t-46.5 -22.5v-23h-27v23q-24 3 -42.5 19t-18.5 56v12h61v-15q0 -24 1.5 -30t8.5 -6t9.5 4.5t2.5 12.5
q0 20 -2.5 28.5t-19.5 19.5q-27 17 -37 25t-17 23t-7 33q0 27 15 42.5t46 18.5v20h27v-20q28 -3 42 -18t14 -42q0 -4 -1 -11zM636 428h-1l-1 -1h-2h-1l-1 -1h-1l-2 -1h-1l-1 -1h-1l-1 -1h-2l-1 -1h-1l-1 -1h-1l-2 -1h-1l-1 -1h-1l10 -22h1l1 1h1h1l1 1h1l1 1h1l2 1h1h1l1 1
h1l1 1h1h1l1 1h1l1 1h1zM568 392l-1 -1l-1 -1h-1l-1 -1l-1 -1l-1 -1l-1 -1l-1 -1h-1l-1 -1l-1 -1l-1 -1v-1l-1 -1l-1 -1h-1l-1 -1l-1 -1l-1 -1l-1 -1l-1 -1l18 -17l1 1v1h1l1 1l1 1l1 1l1 1l1 1l1 1h1l1 1v1l1 1l1 1h1l1 1l1 1h1v1h1zM517 333v-1l-1 -1l-1 -1v-1l-1 -1
l-1 -1v-1l-1 -2v-1l-1 -1l-1 -1v-1l-1 -1v-1l-1 -2v-1l-1 -1l-1 -1v-1l-1 -2l23 -10v1v1l1 1v1l1 1v1l1 1v1l1 1v1l1 1v1l1 1v1l1 1v1l1 1l1 1v1l1 1v1zM490 260v-1v-1v-2v-1l-1 -1v-2v-1v-1v-2v-1v-1l-1 -2v-1v-1v-2v-1v-1v-2v-1v-1l24 -1v1v1v1v1l1 2v1v1v1v1v1v2v1v1l1 1
v1v2v1v1v1l1 1zM492 183v-1v-1v-1l1 -2v-1v-1l1 -1v-2v-1l1 -1v-2v-1l1 -1v-1v-2l1 -1v-1l1 -1v-2v-1h1l23 7v1l-1 1v1v1l-1 1v1v1l-1 2v1v1l-1 1v1v1l-1 1v1v2v1l-1 1v1v1v1zM521 111v-1l1 -1l1 -1v-1l1 -1l1 -1v-1l1 -1l1 -1l1 -1v-1l1 -1l1 -1l1 -1v-1l1 -1l1 -1l1 -1
l1 -1v-1l1 -1l19 15l-1 1v1l-1 1l-1 1v1l-1 1h-1v1l-1 1l-1 1v1l-1 1l-1 1v1l-1 1l-1 1v1l-1 1l-1 1v1zM574 54l1 -1l1 -1l1 -1h1l1 -1l1 -1h2l1 -1l1 -1l1 -1h1l1 -1l1 -1h1l1 -1l1 -1h1l1 -1l2 -1l13 21l-1 1h-1l-1 1h-1l-1 1l-1 1h-1l-1 1h-1l-1 1l-1 1h-1l-1 1h-1l-1 1
l-1 1l-1 1l-1 1h-1l-1 1zM643 20h1h1l1 -1h1h2l1 -1h1h2l1 -1h1h1l2 -1h1h1h2h1l1 -1h2h1h1h1l3 24h-1h-1h-2l-1 1h-1h-1h-1h-1l-2 1h-1h-1h-1l-1 1h-1h-1l-2 1h-1h-1h-1v1zM721 13h1h2l1 1h1h2h1h1h2l1 1h1h2h1l1 1h2h1h1h2l1 1h1l-5 24h-1l-1 -1h-2h-1h-1h-1l-1 -1h-1h-1
h-2h-1l-1 -1h-1h-1h-2h-1h-1h-1h-1l-1 -1zM795 34l1 1h2l1 1l1 1h1l1 1h1l1 1l2 1h1l1 1l1 1h1l1 1l1 1h1l1 1l1 1h2l1 1l-14 21l-1 -1l-1 -1h-1l-1 -1h-1l-1 -1l-1 -1h-1l-1 -1h-1l-1 -1h-1l-1 -1l-1 -1h-1l-1 -1h-1l-1 -1h-1l-1 -1zM857 81l1 1l1 1l1 1l1 1l1 1l1 1v1l1 1
l1 1l1 1l1 1v1l1 1l1 1l1 1l1 1v1l1 1l1 1l1 1l-20 14l-1 -1l-1 -1v-1h-1l-1 -1v-1l-1 -1l-1 -1v-1l-1 -1l-1 -1l-1 -1l-1 -1l-1 -1l-1 -1v-1l-1 -1l-1 -1h-1v-1zM899 146v1v1l1 2v1l1 1v1l1 1v2v1l1 1v1l1 2v1v1l1 1v2l1 1v1v1l1 2l-24 6v-1l-1 -1v-1v-2l-1 -1v-1v-1l-1 -1
v-1v-1l-1 -1v-1v-1l-1 -2v-1l-1 -1v-1v-1l-1 -1v-1zM914 222v2v1v2v1v1v2v1l-1 1v2v1v2v1v1v2v1v1v2v1l-1 1l-24 -3v-1v-1v-1v-1l1 -1v-1v-2v-1v-1v-1v-2v-1v-1v-1v-1v-2v-1v-1v-1v-1h25zM901 299l-1 1v1l-1 1v1l-1 2v1l-1 1v1l-1 1v1l-1 2v1l-1 1v1l-1 1v2l-1 1l-1 1v1
l-1 1l-21 -11v-1l1 -1v-1l1 -1v-1l1 -1v-1l1 -1v-1v-1l1 -1v-1l1 -1v-2l1 -1v-1l1 -1v-1v-1l1 -1zM861 365v1l-1 1h-1l-1 1l-1 1v1l-1 1l-1 1l-1 1l-1 1l-1 1l-1 1l-1 1l-1 1v1h-1l-1 1l-1 1l-1 1l-1 1l-1 1l-16 -19l1 -1l1 -1l1 -1h1l1 -1v-1l1 -1h1l1 -1l1 -1v-1l1 -1
l1 -1h1v-1l1 -1l1 -1l1 -1v-1h1zM800 413v1h-1l-1 1h-2l-1 1l-1 1h-1l-1 1h-1l-2 1h-1l-1 1h-1l-1 1h-1l-2 1h-1l-1 1h-1l-1 1h-1l-9 -23h1h1l1 -1h1l1 -1h1l1 -1h1h1l1 -1h1l1 -1h1l1 -1h1l1 -1h1l1 -1h1l1 -1h1zM701 484q-108 0 -183.5 -76t-75.5 -183t75.5 -183t183 -76
t183 76t75.5 183t-75.5 183t-182.5 76zM106 592q74 7 151 9q-51 2 -102 8q-17 2 -29 13.5t-12 27.5v101q0 16 12 27.5t29 13.5q198 19 408 0q17 -1 29 -13t12 -28v-101q0 -16 -12 -27.5t-29 -13.5q-73 -8 -148 -10q49 -3 99 -7q17 -2 29 -13.5t12 -28.5v-49q-42 -22 -75 -55
q-20 -20 -37 -44q-166 -12 -337 7q-17 1 -29 12.5t-12 28.5v100q0 17 12 28.5t29 13.5z" />
    <glyph glyph-name="uniE607" unicode="&#xe607;" 
d="M532 316q37 29 58 71.5t21 91.5q0 85 -60 146t-145 61t-145.5 -61t-60.5 -146q0 -49 21 -91.5t58 -71.5q-96 -39 -156 -126t-60 -194q0 -18 3 -39h680q2 21 2 39q0 107 -59.5 194t-156.5 126zM743 448q36 29 57 71t21 90q0 84 -59 144t-144 60q-54 0 -97.5 -24t-70.5 -69
q81 0 147 -69t67 -157q1 -49 -13 -88t-53 -83q125 -47 185 -230h171q3 21 3 39q0 106 -59.5 192t-154.5 124z" />
    <glyph glyph-name="uniE608" unicode="&#xe608;" 
d="M856 684l29 29q4 5 7 12l43 -44q10 -9 23 -9t22.5 9.5t9.5 22.5t-9 23l-128 128q-10 9 -23 9t-22.5 -9.5t-9.5 -22.5t9 -23l44 -43q-7 -3 -12 -7l-31 -32q-117 93 -266 103v34q0 13 -9.5 22.5t-22.5 9.5t-22.5 -9.5t-9.5 -22.5v-34q-123 -8 -226 -73.5t-162.5 -172.5
t-59.5 -232q0 -97 38 -186t102.5 -153.5t153.5 -102.5t186.5 -38t186 38t153 102.5t102.5 153.5t38 186q0 95 -35.5 180.5t-98.5 151.5zM512 -38q-106 0 -196.5 52.5t-143 143t-52.5 196.5t52.5 196t143 142.5t196.5 52.5t196.5 -52.5t143 -142.5t52.5 -196t-52.5 -196.5
t-143 -143t-196.5 -52.5zM525 599q0 11 -7.5 18.5t-18.5 7.5t-18.5 -7.5t-7.5 -18.5v-185q-23 -8 -37 -28t-14 -45q0 -32 22.5 -54.5t54.5 -22.5t55 22.5t23 54.5q0 25 -14.5 45t-37.5 28v185z" />
    <glyph glyph-name="uniE609" unicode="&#xe609;" 
d="M576 111h20v-4h-20v4zM664 132h5v-16h-5v16zM433 124h-15h-1q3 -4 8 -6q5 3 8 6zM443 132h-37v-37h37v37zM435 96q-11 3 -24 4l1 4q13 -2 25 -4zM417 107l1 3q7 -1 15 -2l-1 -4q-8 2 -15 3zM440 110q-9 2 -15 4q-6 -2 -16 -5q-1 2 -2 3q9 2 14 4l-6 6l-5 -5q-1 1 -2 3
q7 5 11 12l3 -2q-1 -1 -2 -3h18v-3q-4 -4 -9 -8q5 -1 13 -3q-1 -2 -2 -3zM680 133h5v-17h-5v17zM576 104h20v-3h-20v3zM825 618q-36 29 -88 52t-86.5 33t-99.5 27q-10 2 -34 8t-30.5 7.5t-22.5 6.5t-23.5 8.5t-20 9.5t-24.5 14q-32 20 -76 40.5t-49 14.5q-4 -4 0.5 -13.5
t13.5 -26t13 -30.5q23 -71 -35 -116q-208 -158 -199 -352q6 -110 70 -196.5t169 -131t229 -36.5q189 12 306.5 123.5t121.5 280.5q4 163 -135 277zM383 130h4v-30h-4v30zM301 135h41v-4h-41v4zM297 95q5 7 11 17l3 -2q-5 -9 -11 -17q-2 1 -3 2zM325 96q0 -7 -7 -7h-8v5h7
q3 0 3 3v19h-24v4h50v-4h-21v-20zM343 94q-6 9 -12 16l3 2q7 -7 12 -16zM358 88h-4v30q-2 -5 -5 -9q0 2 -1 4q6 11 9 25l4 -1q-1 -6 -3 -11v-38zM382 131h-10q-1 -4 -2 -7h10v-4q-2 -20 -16 -32q-2 2 -3 4q7 5 11 13q-3 3 -6 5l2 3q3 -2 5 -4q2 5 3 11h-7q-3 -9 -7 -15
q-1 2 -3 4q6 8 9 22h-6v4h20v-4zM396 96q0 -4 -1.5 -5.5t-4.5 -1.5h-7v4h6q2 0 2.5 0.5t0.5 3.5v41h4v-42zM693 134h4v-34h-4v34zM471 135h27v-4h-27v4zM447 88h-4v3h-37v-3h-4v48h45v-48zM462 89h-3v27q-3 -9 -7 -14q0 2 -1 4q5 9 7 18h-7v4h8v10h3v-10h7v-4h-7v-9l3 3
q3 -3 5 -6l-2 -2q-3 2 -6 5v-26zM466 96q4 6 8 16l4 -2q-5 -9 -9 -16q-1 1 -3 2zM487 95q0 -6 -6 -6h-7q0 2 -1 4h7q3 0 3 4v19h-14v4h32v-4h-14v-21zM497 94q-3 8 -7 16l4 2q4 -10 8 -16zM526 88h-4l4 13h4zM528 306l39 41l42 43q6 4 -2 6q-3 0 -52 10l-48 10
q-1 42 10.5 67.5t32.5 28.5q27 3 51.5 -31.5t33.5 -96.5q8 -53 -6.5 -94t-40.5 -44q-17 -2 -32.5 14t-27.5 46zM567 129l-3 -3q-4 4 -7 8l3 2zM561 90l-2 3q1 2 1 5v19h-6v4h10v-24l6 4v-4q-5 -4 -9 -7zM600 95q0 -6 -6 -6h-7q-1 2 -1 4h7q3 0 3 2v3h-20v-9h-4v25h28v-19z
M604 117h-37v3h17v4h-13v3h13v3h-15v4h15v4h4v-4h15v-4h-15v-3h14v-3h-14v-4h16v-3zM655 94q0 -2 -2 -4h-6h-6q-7 -1 -6 6v15h-10q-1 -9 -4 -13q-3 -6 -13 -10q-1 2 -3 4q9 3 13 8q2 3 3 11h-14v4h22v10h-12l-6 -8q-2 1 -3 2q6 7 9 18l4 -2q-1 -3 -3 -6h11v9h4v-9h18v-4h-18
v-10h22v-4h-16v-14q-1 -4 3 -4h5q4 0 4.5 2.5t0.5 7.5q2 -1 4 -1q0 -4 -1 -8zM692 113h-4v-19q0 -5 -4 -5h-4q0 2 -1 4q2 -1 4 -1t2 3v18h-5v-5q0 -13 -5 -20q-1 2 -2 3q4 6 4 17v5h-4v-18q0 -5 -5 -5h-3q-1 2 -1 4h4q1 0 1 2v17h-5v-6q0 -11 -4 -19l-3 3q4 6 4 17v5h-4v3h4
v20h12v-20h4v20h11v-20h4v-3zM705 95q0 -6 -5 -6h-7q0 2 -1 4h6q3 0 3 3v42h4v-43zM716 99q0 2 -1 4q2 -1 4 -1q4 1 3 7q-1 4 -5 9l4 14h-6v-44h-4v47h14v-3q-2 -8 -4 -14q4 -5 5 -9q1 -9 -5 -10q-2 -1 -5 0zM723 93q5 5 8 12l3 -2q-3 -7 -7 -12zM755 92q-5 6 -9 10l3 2
q5 -4 9 -9zM757 117q-10 6 -16 15q-4 -7 -10 -12h21v-3h-9v-6h14v-4h-14v-12q0 -6 -5 -6h-6q0 2 -1 4h6q2 0 2 2v12h-12v4h12v6h-9v2q-2 -1 -4 -3l-2 4q10 7 16 17h4l-1 -2q6 -9 16 -14zM844 293q-16 -3 -28.5 14t-22.5 49q32 30 35 33q20 16 39 35q5 5 -2 7q-7 0 -45 7
q-7 1 -22.5 4t-18.5 4q0 39 10.5 67.5t30.5 32.5q23 4 42 -32.5t25 -89.5q6 -57 -7.5 -91t-35.5 -40zM255 404zM229 403.5q0 10.5 7.5 18.5t18 8t18.5 -8t8 -18.5t-8 -18t-18.5 -7.5t-18 7.5t-7.5 18zM268 392l-11 12l13 13q-5 6 -13 6t-14 -5.5t-6 -13.5t6 -14t14 -6t13 6z
M271 409zM266 409q0 5 5 5t5 -5t-5 -5t-5 5zM262 407l4 -4l-4 -3l-3 3zM274 395l-4 4l5 2z" />
    <glyph glyph-name="uniE60A" unicode="&#xe60a;" 
d="M509.5 752q32.5 0 56.5 -11.5t40.5 -35.5t27.5 -50t22 -66h89q-14 109 -73 175.5t-162.5 66.5t-163 -66.5t-73.5 -175.5h89q12 40 22.5 66t27 50t41 35.5t57 11.5zM370 114h279v268h-279v-268zM413 327h133v16q0 7 5.5 12.5t13.5 5.5h5q8 0 13.5 -5.5t5.5 -12.5v-16h19
q7 0 13 -5.5t6 -13.5t-6 -13t-13 -5h-19v-118q0 -12 -8 -19.5t-19 -7.5h-38q-7 0 -13 5.5t-5.5 13t6 13t12.5 5.5h22v108h-36l-67 -135q-5 -10 -17 -10h-3q-11 0 -16.5 8.5t-0.5 18.5l59 118h-52q-8 0 -13.5 5t-5.5 13t5.5 13.5t13.5 5.5zM950 29l-65 494q-2 16 -14 26
t-27 10h-99h-79h-314h-78h-98q-16 0 -28 -10.5t-14 -25.5l-62 -495v-11q0 -33 26 -56t63 -23h701q37 0 63 23t26 56q0 7 -1 12zM692 113q0 -14 -10.5 -24.5t-25.5 -10.5h-293q-15 0 -25.5 10.5t-10.5 24.5v271q0 14 10.5 24.5t25.5 10.5h293q15 0 25.5 -10.5t10.5 -24.5
v-271z" />
    <glyph glyph-name="uniE60B" unicode="&#xe60b;" 
d="M912 752q-19 17 -45 17h-4h-27q-72 0 -130 14q-28 7 -61.5 28t-64.5 46.5t-34 27.5q-16 11 -35 11q-23 0 -36 -11q-3 -2 -21.5 -19t-35.5 -31t-45 -30t-54 -22q-58 -14 -131 -14h-27h-4q-26 0 -45 -17q-20 -19 -20 -47v-160q0 -95 13.5 -179t35.5 -145t53 -113t62 -86.5
t67 -62t63 -42.5t55 -26t39.5 -14t18.5 -4q6 -1 11.5 -1t11.5 1q8 1 19 4t39.5 14t55.5 26t63.5 42.5t67.5 62t62.5 86.5t53.5 113t35.5 145t13.5 179v160q0 28 -20 47v0zM867 545q0 -357 -193 -523q-79 -68 -161 -85l-2 -1q-5 1 -13 3t-32 11.5t-47.5 22t-55.5 37.5t-59 56
t-55 78.5t-48 103.5t-32.5 132.5t-12.5 164.5v160q13 -1 32 -1q81 0 146 16q40 10 84 38t68 51l25 23q10 -10 27.5 -25.5t65 -46t87.5 -40.5q65 -16 145 -16l31 1v-160v0zM867 545zM755 495zM703 682h-65l-134 -236l-131 236h-66l162 -288h-138v-46h145v-60h-145v-47h145
v-135h57v135h146v47h-146v60h146v46h-139zM703 682z" />
    <glyph glyph-name="uniE60C" unicode="&#xe60c;" 
d="M278 289v3q0 15 10.5 25.5t25.5 10.5h16h24l-153 418h-121v-34h97l129 -350q-26 -3 -44 -23t-18 -47v-3q0 -29 20.5 -49.5t49.5 -20.5h593v34h-593q-15 0 -25.5 10.5t-10.5 25.5zM427 331h398l128 322h-640l8 -23zM903 619l-101 -254h-351l-90 254h542zM369 194
q-34 0 -58 -24t-24 -58t24 -58t58 -24t58 24t24 58t-24 58t-58 24zM369 64q-20 0 -34 14t-14 34t14 34t34 14t34 -14t14 -34t-14 -34t-34 -14zM792 194q-34 0 -58 -24t-24 -58t24 -58t58 -24t58 24t24 58t-24 58t-58 24zM792 64q-20 0 -34 14t-14 34t14 34t34 14t34 -14
t14 -34t-14 -34t-34 -14zM792 64z" />
    <glyph glyph-name="uniE60D" unicode="&#xe60d;" 
d="M1013 328h-1003q15 -95 109.5 -169t234.5 -104q-43 -32 -49 -72h413q-7 41 -49 72q140 30 234 104t110 169zM950 522q-11 13 -35.5 24t-61.5 23t-44 15q-5 2 -8 3q0 18 -1 24q-2 22 -17 62q3 0 5 -2q1 0 3 -9t5.5 -18.5t16.5 -20t33 -16.5q26 -8 63 1l3 -1q4 -1 5 -1
l-1 2q-1 2 -3 3q11 -2 16 4q-2 0 -8 6l-8 8q3 1 3 4q-3 1 -13 8.5t-14 14.5q-2 4 -5.5 11.5t-5.5 10.5t-5.5 8t-9 9t-13.5 8q-13 7 -23.5 8.5t-18 -3.5t-9 -6.5t-6.5 -7.5q-7 -8 -15 -11h-6h-8q-2 0 -3 -1q8 -3 18.5 -31t12.5 -51v-9q-17 8 -35 15q-44 20 -68 25
q-21 5 -32 3q-93 -15 -110 -151q-9 -75 5 -128h399q56 100 -1 167zM643 543q-49 -61 -57 -54q-6 6 4 36t22 45q11 13 30.5 20t26.5 1q7 -7 -24 -45q-1 -2 -2 -3zM278 374q30 31 40.5 66.5t-3.5 56.5q8 9 21 19q15 11 31 16q-1 -30 1 -46q0 -4 3 -18.5t3 -19.5q1 -6 2 -9v-1
h-1q-20 -7 -34 -30t-17 -54h23q0 16 7 31t14 17q3 1 6 -2.5t5.5 -13t3.5 -14.5t3 -18h102q-21 43 -50 67t-56 19q-6 18 -9 36q-6 35 1 59h4v2h2q1 -1 6.5 -8t13 -13.5t22.5 -10.5t34 3q6 2 13.5 7.5t13 10.5t13.5 14l11 10l3 1l4 1q-5 3 -6 3q10 4 11 11q-2 -1 -10 0.5
t-9 2.5q1 1 1 4q-4 -1 -11 1q-48 22 -77 19q-6 -1 -11.5 -2t-9.5 -3.5t-7 -4t-5 -4.5t-3 -5t-2 -5.5t-1 -4.5v-4l-1 -3q0 -8 -6 -16v0q-1 -1 -1 -2v-1q-17 -8 -26 -14q-1 -1 -24 -18l-5 -4l-1 1q-17 21 -58 15t-71 -38q-22 -22 -31 -54t-6 -57q1 -8 3 -14h107q11 7 24 19z
M224 451q-2 4 10.5 20.5t22.5 23.5q10 5 23 5t16 -5q1 -3 0 -5t-5 -5.5t-7.5 -5.5t-9.5 -6l-4 -2q-42 -27 -46 -20z" />
    <glyph glyph-name="uniE60E" unicode="&#xe60e;" 
d="M906 -106h-263q-40 0 -68.5 29t-28.5 69v265q0 40 28.5 69t68.5 29h263q40 0 68.5 -29t28.5 -69v-265q0 -40 -28.5 -69t-68.5 -29zM906 412h-263q-40 0 -68.5 28.5t-28.5 69.5v264q0 41 28.5 70t68.5 29h263q40 0 68.5 -29t28.5 -70v-264q0 -41 -28.5 -69.5t-68.5 -28.5z
M387 -106h-262q-41 0 -69.5 29t-28.5 69v265q0 40 28.5 69t69.5 29h262q40 0 68.5 -29t28.5 -69v-265q0 -40 -28.5 -69t-68.5 -29zM387 412h-262q-41 0 -69.5 28.5t-28.5 69.5v264q0 41 28.5 70t69.5 29h262q40 0 68.5 -29t28.5 -70v-264q0 -41 -28.5 -69.5t-68.5 -28.5z
" />
    <glyph glyph-name="uniE60F" unicode="&#xe60f;" 
d="M-53 925zM931 684q29 0 44 -8q8 -3 13.5 -7.5t8.5 -9.5q7 -11 6 -23q0 -5 -0.5 -9t-1 -7t-1.5 -7l-14 -36l-21 -61l-23 -65q-14 -42 -17 -52q-7 -18 -15.5 -32t-17.5 -22q-20 -15 -49 -15h-525l15 -88h503q49 0 49 -41q0 -20 -10 -34q-9 -15 -38 -15h-524q-6 0 -12 1
t-11 3t-10 5q-13 9 -22 23q-4 7 -8 14.5t-7 16.5q-6 21 -8 32l-5 29l-12 56l-14 76l-16 85l-43 222h-75q-16 0 -25 7q-10 7 -17 17q-3 7 -5.5 12.5t-3.5 11t-1.5 11t-0.5 9.5q0 20 13 34q7 5 16 8.5t20 3.5h102q20 0 32 -6q5 -3 10 -6.5t10 -7.5q6 -10 8 -19l6 -18
q1 -4 3 -16v-6l5 -28l5 -38h684zM764 124q8 0 17.5 -2t18.5 -5q18 -7 30 -20q13 -13 21 -29q6 -16 6 -35q0 -9 -1.5 -18.5t-4.5 -16.5q-8 -16 -21 -30q-12 -12 -30 -19q-17 -8 -36.5 -8t-36.5 8t-29 19q-13 14 -19 30q-8 16 -8 35q0 9 1.5 18t6.5 17q6 16 19 29q6 7 13.5 12
t15.5 8q6 2 12 3.5t12 2.5t13 1zM348 126q18 0 36 -7q17 -6 30 -20q6 -6 11 -13.5t9 -14.5q7 -18 7 -36t-7 -35q-7 -15 -20 -30q-13 -12 -30.5 -19t-35.5 -7q-20 0 -37 6q-16 8 -30 20q-13 15 -19 30q-7 17 -7 35t7 36q3 7 8 14.5t11 13.5q5 5 10 8l9 7q6 3 11 5q5 1 9 3
t8.5 2.5t9.5 1t10 0.5z" />
    <glyph glyph-name="uniE610" unicode="&#xe610;" 
d="M1002 325l-180 188v282h-120v-157l-180 188l-481 -501v-31h120v-313h301v188h120v-188h300v313h120v31zM1002 325z" />
    <glyph glyph-name="uniE611" unicode="&#xe611;" 
d="M533 513q25 -25 25 -60q0 -33 -24 -57t-58 -24q-30 0 -52.5 19t-27.5 48q-13 -27 -13 -56q0 -55 38.5 -93t93 -38t92.5 38t38 93q0 49 -32 86t-80 44zM945 428q-4 6 -11 15.5t-30 37.5t-48 53.5t-64 57t-79.5 53.5t-93 37.5t-104.5 15.5q-72 0 -142.5 -28t-120.5 -67
t-89 -79.5t-58.5 -67t-19.5 -28.5q-14 -18 -14 -44t14 -44q4 -6 10.5 -15.5t29.5 -37.5t48.5 -53.5t64.5 -57t79.5 -53.5t92.5 -37.5t104.5 -15.5t104.5 15t93.5 38.5t79 52.5t65 57.5t47.5 52.5t30 39l11 15q14 18 14 44t-14 44zM506 170q-85 0 -145 60t-60 144.5t60 145
t145 60.5t145 -60.5t60 -145t-60 -144.5t-145 -60z" />
    <glyph glyph-name="uniE612" unicode="&#xe612;" 
d="M443 881q-20 0 -31.5 -9t-17.5 -10q-4 0 -12.5 2t-41.5 -5q-26 -5 -45 -28t-26 -44t-9 -39q-6 -54 -2 -143q3 -10 -0.5 -16.5t-8.5 -6.5l-5 -1q-15 1 -19.5 -25t-1.5 -52l3 -26q0 -4 1 -12t2 -11t4 -9t7.5 -9.5t13 -8.5t21.5 -10q11 -30 32.5 -56t38.5 -37l17 -11l1 -24
q-1 0 0 -4t2 -11.5t0 -16.5t-8 -19.5t-19 -20t-35.5 -18t-56.5 -13.5q-54 -8 -96.5 -30t-60.5 -42.5t-36.5 -46t-24.5 -31.5q-29 -27 -29 -164l1023 -1q-1 15 -3 38.5t-11.5 69t-23.5 57.5q-5 5 -24 31t-38 46.5t-61.5 42.5t-97.5 30q-31 5 -53.5 13t-34 17.5t-18 20
t-6.5 20.5t1.5 17.5t3.5 13.5l2 6l2 16q6 4 15.5 13t30.5 37.5t32 59.5q7 4 19.5 11.5t16.5 10t10 8t8.5 11t4.5 13.5q0 1 0.5 3.5t1 10t0.5 14.5t-0.5 16.5t-1 17.5t-2.5 16.5t-5 14.5t-7.5 9.5t-10.5 3.5q0 1 -4 -0.5t-7 3.5t0 16q3 22 3 62.5t-2 64.5q-1 3 -1.5 17
t-1.5 23t-5 23t-9 23.5t-15.5 17.5t-24.5 11q-21 4 -39 3t-24 -1q-6 1 -44 26.5t-58 25.5z" />
    <glyph glyph-name="uniE613" unicode="&#xe613;" horiz-adv-x="1025" 
d="M225 561q0 37 29.5 108.5t57.5 124t29 52.5h-58q-11 -12 -29 -32.5t-65 -77.5t-84 -105.5t-68.5 -101t-35.5 -79.5q-5 -32 16 -70t54 -74.5t66.5 -73t56.5 -75t22 -70.5q-3 -63 -165 -132l-50 -19h281q6 3 15 8t33.5 21t44.5 32t39.5 37.5t27.5 39.5q18 45 19.5 103.5
t-19.5 129.5q-9 26 -45 61.5t-73.5 64.5t-67.5 65t-31 63zM809 87.5q-1 31.5 22 70t56.5 75t66 73t53.5 74.5t17 70q-4 27 -34.5 78t-71.5 104t-81 102t-68 80l-28 32h-57q13 -23 32 -58.5t51 -112.5t32 -114q0 -27 -30 -63t-67.5 -65t-73.5 -64.5t-45 -61.5
q-21 -71 -19.5 -129.5t19.5 -103.5q12 -29 52 -63.5t74 -54.5l33 -20h282q-106 36 -169 85q-45 35 -46 66.5zM513 619zM342 618.5q0 70.5 50 121t120.5 50.5t120.5 -50.5t50 -121t-50 -120.5t-120.5 -50t-120.5 50t-50 120.5z" />
    <glyph glyph-name="uniE614" unicode="&#xe614;" 
d="M252 597h-128q-35 0 -60.5 -25t-25.5 -60v-469q0 -36 25.5 -61t60.5 -25h213v555q0 35 -25 60t-60 25zM188 64q-19 0 -31 11.5t-12 31t12 31t31 11.5t30.5 -11.5t11.5 -31t-11.5 -31t-30.5 -11.5zM934 508l-81 -517q-3 -13 -14.5 -23.5t-23.5 -10.5h-435v598l128 239
q17 17 34 17h132q17 0 30 -13q9 -9 9 -34l-56 -209h239q17 0 30 -13q15 -15 8 -34z" />
    <glyph glyph-name="uniE615" unicode="&#xe615;" 
d="M908 756h-100q-10 0 -17 -6.5t-7 -16.5t7 -16.5t17 -6.5h100q29 0 49 -20.5t20 -49.5v-372q0 -29 -20 -49.5t-49 -20.5h-629q-29 0 -49.5 20.5t-20.5 49.5v535q0 38 -27 65.5t-66 27.5h-93q-9 0 -16 -7t-7 -16.5t7 -16.5t16 -7h93q20 0 33.5 -13.5t13.5 -32.5v-535
q0 -49 34 -83t82 -34h629q48 0 82 34t34 83v372q0 48 -34 82t-82 34zM598 321l132 131q6 7 6.5 17t-6.5 16.5t-16.5 6.5t-16.5 -7l-131 -131q-7 -7 -7 -16.5t6.5 -16.5t16.5 -7t16 7zM434 452l131 -131q7 -7 17 -7t16.5 7t6.5 16.5t-7 16.5l-131 131q-7 7 -16.5 7
t-16.5 -6.5t-7 -16.5t7 -17zM559 873v-536q0 -9 6.5 -16t16 -7t16.5 7t7 16v536q0 9 -7 16t-16.5 7t-16 -7t-6.5 -16zM931 58h-675q-39 0 -66 -27t-27 -65.5t27 -66t66 -27.5t66 27.5t27 65.5q0 25 -12 47h513q-12 -22 -12 -47q0 -38 27 -65.5t65.5 -27.5t66 27.5t27.5 66
t-27.5 65.5t-65.5 27zM303 -35q0 -19 -14 -32.5t-33 -13.5t-33 13.5t-14 32.5t14 33t33 14t33 -14t14 -33zM931 -81q-19 0 -33 13.5t-14 32.5t14 33t33 14t32.5 -14t13.5 -33t-13.5 -32.5t-32.5 -13.5z" />
    <glyph glyph-name="uniE616" unicode="&#xe616;" 
d="M512 469q34 0 59 -24.5t25 -59t-25 -59.5t-59.5 -25t-59 25t-24.5 59.5t24.5 59t59.5 24.5zM844 469q35 0 59.5 -24.5t24.5 -59t-24.5 -59.5t-59.5 -25t-59.5 25t-24.5 59.5t24.5 59t59.5 24.5zM179 469q35 0 59.5 -24.5t24.5 -59t-24.5 -59.5t-59.5 -25t-59.5 25
t-24.5 59.5t24.5 59t59.5 24.5zM148 469z" />
    <glyph glyph-name="uniE617" unicode="&#xe617;" 
d="M780 -128l-551 509l551 509v-210l-340 -298l340 -298v-212z" />
    <glyph glyph-name="uniE618" unicode="&#xe618;" 
d="M955 458h-44q-15 0 -29.5 10.5t-18.5 24.5l-26 62q-7 13 -4.5 30.5t13.5 28.5l32 31q10 11 10 26.5t-10 25.5l-53 52q-11 11 -26 11t-26 -11l-31 -31q-11 -11 -28.5 -13.5t-30.5 4.5l-62 26q-14 4 -24.5 18.5t-10.5 29.5v44q0 15 -11 26t-26 11h-74q-15 0 -26 -11
t-11 -26v-44q0 -16 -10.5 -30t-24.5 -18l-62 -26q-13 -7 -30.5 -4.5t-28.5 13.5l-31 32q-11 10 -26 10t-26 -10l-52 -53q-11 -10 -11 -25.5t11 -26.5l31 -31q11 -11 13.5 -28.5t-4.5 -30.5l-26 -62q-4 -14 -18.5 -24.5t-29.5 -10.5h-44q-15 0 -26 -11t-11 -26v-74
q0 -15 11 -26t26 -11h44q16 0 30 -10.5t18 -24.5l26 -62q7 -13 4.5 -30.5t-13.5 -28.5l-32 -31q-10 -11 -10 -26.5t10 -25.5l53 -53q11 -10 26 -10t26 10l31 32q11 11 28.5 13.5t30.5 -5.5l62 -25q14 -4 24.5 -18.5t10.5 -29.5v-44q0 -15 11 -26t26 -11h74q15 0 26 11t11 26
v44q0 15 10.5 29.5t24.5 18.5l62 25q13 8 30.5 5.5t28.5 -13.5l31 -32q11 -10 26 -10t26 10l53 53q10 11 10 26t-10 26l-32 31q-11 11 -13.5 28.5t4.5 30.5l26 62q4 14 18 24.5t30 10.5h44q15 0 26 11t11 26v74q0 15 -11 26t-26 11zM697 384q0 -76 -54 -130.5t-130.5 -54.5
t-131 54.5t-54.5 131t54.5 130.5t131 54t130.5 -54t54 -131z" />
    <glyph glyph-name="uniE619" unicode="&#xe619;" 
d="M419 381l364 363h-178l-364 -363l357 -357h178zM364 24z" />
    <glyph glyph-name="uniE61A" unicode="&#xe61a;" horiz-adv-x="1085" 
d="M396 384h-76q-7 0 -12 -7t-5 -16.5t5 -16.5t12 -7h105q6 0 11 6q6 5 6 12v105q0 7 -6.5 12t-16.5 5t-16.5 -5t-6.5 -12v-76zM466 35l23 47h116l23 -47h-162zM349 -12q-48 0 -82 34.5t-34 82.5t34 82t82 34t82 -34t34 -82t-34 -82.5t-82 -34.5zM349 175q-29 0 -49.5 -20.5
t-20.5 -49.5t20.5 -49.5t49.5 -20.5t49.5 20.5t20.5 49.5t-20.5 49.5t-49.5 20.5zM745 -12q-48 0 -82.5 34.5t-34.5 82.5t34.5 82t82.5 34t82 -34t34 -82t-34 -82.5t-82 -34.5zM745 175q-29 0 -49.5 -20.5t-20.5 -49.5t20.5 -49.5t49.5 -20.5t49 20.5t20 49.5t-20 49.5
t-49 20.5zM163 35q-20 0 -33.5 11.5t-13.5 29.5v266q0 44 23.5 82.5t62.5 58.5q1 0 2 1l146 91l45 -51l-139 -70q-4 -2 -10.5 -7t-23 -19t-28.5 -27.5t-22 -31t-9 -32.5v-255h47l12 -47h-59zM862 36l22 46h24v604q0 47 -46 47h-416q-49 0 -50 -47v-134v-29l-47 52v111
q-4 38 27 66t70 28h416q38 0 65 -27.5t27 -66.5v-632q0 -7 -5 -12.5t-13 -5.5h-74z" />
    <glyph glyph-name="uniE61B" unicode="&#xe61b;" horiz-adv-x="1749" 
d="M656 -60q-43 -23 -68 -5t-17 66l47 272l-198 192q-36 35 -26.5 64t58.5 36l274 40l123 247q22 44 53 44t52 -44l123 -247l274 -40q49 -7 58.5 -36t-25.5 -64l-199 -192l47 -272q8 -48 -17 -66t-68 5l-245 128z" />
    <glyph glyph-name="uniE61C" unicode="&#xe61c;" horiz-adv-x="1283" 
d="M1085 51v92h43v371h-44v85q0 28 -19.5 49.5t-46.5 21.5h-65v110h-700q-20 0 -32.5 -1.5t-31 -9t-29.5 -22.5q-11 -16 -15.5 -37.5t-4.5 -68.5v-1q0 -2 0.5 -4t0.5 -5v-6v-6v-6q0 -3 -0.5 -5t-1 -3.5t-1.5 -1.5q0 -1 1 -2t1 -2l1 -548q0 -27 19 -45t47 -18h812q28 0 47 18
t19 45zM1084 186h-323q-59 0 -101 42t-42 101.5t42 101.5t101 42h324zM196 717q15 17 44 19h669v-66h-692q-16 0 -34 -12q-3 40 13 59zM183 57v535q0 13 9 23.5t20 10.5h799q12 0 20.5 -11t8.5 -23v-78h-281q-75 0 -128.5 -54t-53.5 -130q0 -77 53.5 -132t128.5 -55h281v-86
q0 -11 -8 -18t-21 -7h-799q-12 0 -20.5 7t-8.5 18zM716 330q0 -31 17.5 -52t46.5 -21q31 0 56 22t25 51q0 31 -21 52.5t-51.5 21.5t-51.5 -21.5t-21 -52.5zM788.5 367q15.5 0 26 -10.5t10.5 -26t-10.5 -26t-26 -10.5t-26 10.5t-10.5 26t10.5 26t26 10.5z" />
    <glyph glyph-name="uniE61D" unicode="&#xe61d;" 
d="M396 314h-229q-29 0 -49 20t-20 49v229q0 28 20 48t49 20h229q28 0 48 -20t20 -48v-229q0 -29 -20 -49t-48 -20zM167 641q-12 0 -21 -8.5t-9 -20.5v-229q0 -12 9 -21t21 -9h229q12 0 20.5 9t8.5 21v229q0 12 -8.5 20.5t-20.5 8.5h-229zM396 -120h-229q-29 0 -49 20
t-20 48v229q0 29 20 49t49 20h229q28 0 48 -20t20 -49v-229q0 -28 -20 -48t-48 -20zM167 207q-12 0 -21 -9t-9 -21v-229q0 -12 9 -20.5t21 -8.5h229q12 0 20.5 8.5t8.5 20.5v229q0 12 -8.5 21t-20.5 9h-229zM579 571h347v-52h-347v52zM579 428h347v-52h-347v52zM579 160h347
v-52h-347v52zM579 17h347v-52h-347v52z" />
    <glyph glyph-name="uniE61E" unicode="&#xe61e;" 
d="M956 748l-26 25q-21 20 -50.5 20t-50.5 -20l-430 -423l127 -124l430 423q21 20 21 49t-21 50v0zM880 574l-126 124l25 25l127 -125zM818 48h-610v599h427l67 69h-530q-15 0 -25.5 -10t-10.5 -25v-668q0 -15 10.5 -25t25.5 -10h680q15 0 25 10t10 25v494l-72 -69zM376 322
l-79 -200l200 81zM376 322z" />
    <glyph glyph-name="uniE61F" unicode="&#xe61f;" 
d="M502 734h-296q-51 0 -85.5 -34t-34.5 -83v-552q0 -49 35 -79q33 -30 85 -30h550q49 0 78 30q28 29 28 79l-1 350q0 9 -5 14.5t-13 5.5t-13.5 -5.5t-5.5 -14.5v-351q0 -29 -20 -50t-48 -21h-551q-30 0 -55 21q-27 22 -27 51v552q0 30 27 55q26 25 56 25h296q9 0 14.5 5.5
t5.5 13.5t-5.5 13t-14.5 5zM917 596q21 21 21 52t-21 52l-90 90q-19 21 -50 21q-30 0 -51 -20l-73 -87l-390 -373l-25 -219l7 -6l213 29l372 390zM753 763q10 10 24 10t23 -10l90 -90q10 -9 10 -23t-10 -24l-57 -57l-136 137zM286 153l8 129l118 -119zM799 546l-356 -359
l-128 128l359 359l127 -127z" />
    <glyph glyph-name="uniE620" unicode="&#xe620;" 
d="M514 832q-93 0 -172 -45.5t-125 -123.5t-46 -170q0 -142 244 -442q56 -68 99 -115q14 16 37 42t82.5 99.5t104.5 140t82 145t37 130.5q0 92 -46 170t-125 123.5t-172 45.5zM514 324q-68 0 -116 48.5t-48 116t48 116t116 48.5t116 -48.5t48 -116t-48 -116t-116 -48.5z
M514 324z" />
    <glyph glyph-name="uniE621" unicode="&#xe621;" horiz-adv-x="1060" 
d="M524 834l-360 -118l2 -458l1 -5q17 -79 83 -146q54 -54 240 -155q17 -9 19 -11l13 -7l16 8q196 99 260 165q31 31 52.5 69t25.5 52.5t6 24.5l2 463zM827 261q-15 -61 -68 -115q-55 -56 -236 -149l-7 4q-179 97 -226 145q-54 54 -68 115l-2 415l304 99l305 -99zM361 188
h49v20h251v-20h49v138h-349v-138zM410 291h251v-49h-251v49zM530 602l11 -22h-111l22 44l-51 6q-31 -75 -91 -136l9 -30l5 -22q11 11 21 22t17 20v-141h48v15h330v34h-155v32h135v29h-135v31h135v32h-135v31h147v33h-136q-5 13 -12 26t-15 26l-50 -8zM537 392h-127v32h127
v-32zM537 453h-127v31h127v-31zM537 516h-127v31h127v-31z" />
    <glyph glyph-name="uniE622" unicode="&#xe622;" 
d="M240 96q-20 0 -34 14t-14 34t14 34l222 222l-222 222q-14 14 -14 34t14 34t34 14t34 -14l256 -256q14 -14 14 -34t-14 -34l-256 -256q-14 -14 -34 -14zM560 96q-20 0 -34 14t-14 34t14 34l222 222l-222 222q-14 14 -14 34t14 34t34 14t34 -14l256 -256q14 -14 14 -34
t-14 -34l-256 -256q-14 -14 -34 -14z" />
    <glyph glyph-name="uniE623" unicode="&#xe623;" 
d="M339 343q-12 0 -21 -8.5t-9 -21.5q0 -12 9 -20.5t21 -8.5t20.5 8.5t8.5 20.5q0 13 -8.5 21.5t-20.5 8.5zM339 219q-12 0 -21 -9t-9 -21t9 -21t21 -9t20.5 9t8.5 21t-8.5 21t-20.5 9zM339 468q-12 0 -21 -8.5t-9 -21.5q0 -12 9 -20.5t21 -8.5t20.5 8.5t8.5 20.5
q0 13 -8.5 21.5t-20.5 8.5zM684 456h-257q-7 0 -12.5 -5t-5.5 -12.5t5.5 -12.5t12.5 -5h257q7 0 12.5 5t5.5 12.5t-5.5 12.5t-12.5 5zM819 655h-82v16q0 8 -5 13t-12 5h-95q-8 31 -31 55q-34 34 -82 34t-82 -34q-23 -23 -31 -55h-95q-7 0 -12 -5t-5 -13v-16h-82
q-12 0 -20.5 -8.5t-8.5 -21.5v-605q0 -12 8.5 -20.5t20.5 -8.5h614q12 0 20.5 8.5t8.5 20.5v605q0 13 -8.5 21.5t-20.5 8.5zM455 718q24 25 57 25t57 -25q13 -12 19 -29h-152q6 17 19 29zM322 653h380v-55h-380v55zM789 50h-554v546h52v-16q0 -8 5 -13t12 -5h416q7 0 12 5
t5 13v16h52v-546zM684 206h-257q-7 0 -12.5 -5t-5.5 -12t5.5 -12.5t12.5 -5.5h257q7 0 12.5 5.5t5.5 12.5t-5.5 12t-12.5 5zM684 332h-257q-7 0 -12.5 -5.5t-5.5 -13.5q0 -7 5.5 -12t12.5 -5h257q7 0 12.5 5t5.5 12q0 8 -5.5 13.5t-12.5 5.5z" />
    <glyph glyph-name="uniE624" unicode="&#xe624;" 
d="M295 654q-38 -27 -67.5 -61.5t-50.5 -74t-32 -84t-11 -89.5q0 -79 30 -147.5t81 -119.5t120 -81t147 -30t146.5 30t120 81t81 119.5t29.5 147.5q0 45 -10.5 88t-30 81.5t-48 72.5t-63.5 61q-19 13 -40.5 10t-35 -21t-10 -40t20.5 -35q54 -39 82 -95.5t28 -121.5
q0 -56 -21 -105t-57.5 -86t-86 -58.5t-105.5 -21.5t-105 21.5t-86 58.5t-58.5 86t-21.5 105q0 66 30.5 124.5t85.5 96.5q18 13 22 34.5t-9 40.5q-12 18 -34 21.5t-41 -8.5zM512 342q22 0 37.5 16t15.5 38v320q0 22 -15.5 38t-37.5 16q-23 0 -38.5 -16t-15.5 -38v-320
q0 -22 15.5 -38t38.5 -16z" />
    <glyph glyph-name="uniE625" unicode="&#xe625;" 
d="M512 896l169 -322l343 -69l-239 -268l43 -365l-316 156l-316 -156l43 365l-239 268l343 69z" />
    <glyph glyph-name="uniE626" unicode="&#xe626;" 
d="M510 491zM744 410q1 3 1 7v1v1q0 4 -1 7l-1 1q0 1 -1 2q-1 3 -3 5l-363 362q-6 6 -14.5 6.5t-14.5 -4.5l-67 -68q-6 -5 -5.5 -13.5t7.5 -15.5l283 -283l-283 -283q-7 -7 -7.5 -15.5t5.5 -13.5l67 -68q6 -5 14.5 -4.5t14.5 6.5l363 363q2 1 3 4q1 1 1 2z" />
    <glyph glyph-name="uniE627" unicode="&#xe627;" 
d="M516.5 631q14.5 0 25 -10.5t10.5 -25t-10.5 -25t-25 -10.5t-25 10.5t-10.5 25t10.5 25t25 10.5zM508 507h17q11 0 19 -7.5t8 -18.5v-317q0 -11 -8 -19t-19 -8h-17q-11 0 -19 8t-8 19v317q0 11 8 18.5t19 7.5zM516.5 719q90.5 0 168 -45t122 -122t44.5 -168t-44.5 -168
t-122 -122t-168 -45t-167.5 45t-122 122t-45 168t45 168t122 122t167.5 45zM517 754q-101 0 -186 -49.5t-134.5 -134.5t-49.5 -185.5t49.5 -186t134.5 -135t185.5 -49.5t186 49.5t135 135t49.5 186t-49.5 185.5t-135 134.5t-185.5 49.5z" />
    <glyph glyph-name="uniE628" unicode="&#xe628;" 
d="M579 22l12 12q9 10 3 22l-10 22q0 3 -1 4q-44 -37 -71 -48q-17 6 -45 27t-64.5 56.5t-75 94.5t-65.5 128q-46 115 -49 276q0 11 10 15q101 47 184 78.5t106 31.5t105.5 -31t183.5 -78q3 -1 6.5 -6.5t2.5 -8.5q-3 -162 -49 -277q-10 -26 -22 -51q2 -3 2 -6v-17
q0 -13 13 -18l20 -8q21 40 37 81q51 128 55 307q0 15 -9.5 31t-23.5 22q-94 44 -191.5 82t-131.5 38t-132 -38.5t-192 -81.5q-15 -7 -24.5 -22t-8.5 -31q3 -178 54 -307q32 -81 78 -149.5t89.5 -109t77 -63.5t53.5 -28h5h5q23 6 61 34q-6 9 2 17zM305 428h416v-60h-416v60z
M484 605h59v-414h-59v414zM864 131q0 4 -3 7t-7 3h-15q-12 0 -15 11l-8 19q-6 11 2 19l12 11q2 3 2 7t-2 7l-19 18q-3 3 -7 3t-7 -3l-11 -10q-9 -9 -19 -3l-19 8q-11 3 -11 15v15q0 4 -3 7t-7 3h-27q-4 0 -7 -3t-3 -7v-15q0 -12 -11 -15l-19 -8q-10 -6 -19 3l-11 10
q-3 3 -7 3t-7 -3l-18 -18q-3 -3 -3 -7t3 -7l11 -11q8 -8 2 -19l-8 -19q-3 -11 -15 -11h-15q-4 0 -7 -3t-3 -7v-26q0 -4 3 -7t7 -3h15q12 0 15 -11l8 -20q6 -10 -2 -18l-11 -11q-3 -3 -3 -7t3 -7l18 -19q3 -3 7 -3q5 0 7 3l11 11q9 8 19 3l19 -8q11 -4 11 -15v-16q0 -4 3 -7
t7 -3h27q4 0 7 3t3 7v16q0 11 11 15l19 8q10 5 19 -3l11 -11q3 -3 7 -3t7 3l19 19q2 3 2 7t-2 7l-11 11q-9 8 -3 18l8 20q3 11 15 11h15q5 0 7.5 2.5t2.5 7.5v26zM771 118q0 -24 -16.5 -41t-41 -17t-41.5 17t-17 41t17 41t41 17t41 -17t17 -41z" />
    <glyph glyph-name="uniE629" unicode="&#xe629;" 
d="M822 255q9 0 16 -6.5t7 -16.5v-199q0 -9 -7 -15.5t-16 -6.5h-275q-9 0 -16 6.5t-7 15.5v199q0 10 7 16.5t16 6.5h275zM822 302h-275q-29 0 -49.5 -20.5t-20.5 -49.5v-199q0 -29 20.5 -49.5t49.5 -20.5h275q29 0 49.5 20.5t20.5 49.5v199q0 29 -20.5 49.5t-49.5 20.5v0z
M764 153h-153q-10 0 -17 7t-7 16.5t7 16.5t17 7h153q10 0 17 -7t7 -16.5t-7 -16.5t-17 -7zM710 53h-99q-10 0 -17 7t-7 17t7 17t17 7h99q10 0 17 -7t7 -17t-7 -17t-17 -7zM398 -15q-3 0 -6 1q-63 17 -124 44q-136 58 -136 123q0 39 47 70q31 21 85 38q46 15 99 25v45
q-50 52 -73 116q-22 63 -22 149q0 99 50.5 154t142.5 55q98 0 154 -67q49 -60 49 -154q0 -33 -6 -64t-13.5 -51.5t-17.5 -39t-15 -24.5l-7 -10q-6 -8 -16 -9t-17.5 5.5t-8.5 16t5 17.5q13 15 25 43q24 54 24 116q0 16 -2 33.5t-11.5 44.5t-25 46.5t-46 34.5t-71.5 15
q-76 0 -112 -45q-34 -41 -34 -117q0 -80 21 -136t68 -103q7 -7 7 -17v-74q0 -8 -6 -15t-14 -8q-56 -9 -113 -27q-50 -16 -74.5 -33t-24.5 -30q0 -14 26 -35t81 -44q58 -26 118 -42q10 -3 15 -11.5t2 -17.5q-5 -18 -23 -18v0zM398 -15z" />
    <glyph glyph-name="uniE62A" unicode="&#xe62a;" 
d="M952 508q-33 165 -168.5 254t-323.5 67q-123 -14 -219 -76t-143.5 -158.5t-33.5 -206.5q25 -192 258 -311q65 -34 55 -108q-1 -14 -7.5 -33t-8.5 -26t1 -14q6 -5 46 23t68 53q11 10 21.5 18t18 13t22 12.5t20.5 10t28.5 13t31.5 14.5q62 28 94 44t79 48t78 66
q117 137 83 297zM287 384q-28 0 -47.5 20t-19.5 48t19.5 47.5t47.5 19.5t48 -19.5t20 -47.5t-20 -48t-48 -20zM512 384q-28 0 -48 20t-20 48t20 47.5t48 19.5t48 -19.5t20 -47.5t-20 -48t-48 -20zM745 384q-28 0 -48 20t-20 48t20 47.5t48 19.5t47.5 -19.5t19.5 -47.5
t-19.5 -48t-47.5 -20z" />
    <glyph glyph-name="uniE62B" unicode="&#xe62b;" 
d="M60 262q10 -4 28 -12.5t67.5 -38.5t94.5 -65t97.5 -93t87.5 -122q53 100 132 202.5t153.5 176.5t138.5 124t97 57v342q-96 -63 -183.5 -152.5t-144 -172t-98.5 -156.5t-62 -117.5t-19 -43.5l-180 191z" />
    <glyph glyph-name="uniE62C" unicode="&#xe62c;" 
d="M538 152q3 -1 7 -1h1h1q4 0 7 1l1 1q1 0 2 1q3 1 5 3l362 363q6 6 6.5 14.5t-4.5 14.5l-68 67q-5 6 -13.5 5.5t-15.5 -7.5l-283 -283l-283 283q-7 7 -15.5 7.5t-13.5 -5.5l-68 -67q-5 -6 -4.5 -14.5t6.5 -14.5l363 -363q1 -2 4 -3q1 -1 2 -1z" />
    <glyph glyph-name="uniE62D" unicode="&#xe62d;" 
d="M908 663h-163v117q0 9 -7 16t-17 7h-418q-10 0 -17 -7t-7 -16v-117h-163q-9 0 -16 -6.5t-7 -16.5t7 -16.5t16 -6.5h792q9 0 16 6.5t7 16.5t-7 16.5t-16 6.5zM326 756h372v-93h-372v93zM791.5 524q-9.5 0 -16.5 -7t-7 -17v-488h-512v488q0 10 -7 17t-16.5 7t-16.5 -7
t-7 -17v-512q0 -9 7 -16t17 -7h558q10 0 17 7t7 16v512q0 10 -7 17t-16.5 7zM442 128v372q0 10 -6.5 17t-16.5 7t-16.5 -7t-6.5 -17v-372q0 -10 6.5 -16.5t16.5 -6.5t16.5 6.5t6.5 16.5zM628 128v372q0 10 -6.5 17t-16.5 7t-16.5 -7t-6.5 -17v-372q0 -10 6.5 -16.5
t16.5 -6.5t16.5 6.5t6.5 16.5z" />
    <glyph glyph-name="uniE62E" unicode="&#xe62e;" 
d="M512 666q-118 0 -202 -82.5t-84 -199.5t84 -199.5t202 -82.5t202 82.5t84 199.5t-84 199.5t-202 82.5zM512 165q-92 0 -157 64t-65 155t65 155t157 64t157 -64t65 -155t-65 -155t-157 -64zM512 697q13 0 22.5 9t9.5 22v126q0 13 -9.5 22t-22.5 9t-22.5 -9t-9.5 -22v-126
q0 -13 9.5 -22t22.5 -9zM512 71q-13 0 -22.5 -9t-9.5 -22v-126q0 -13 9.5 -22t22.5 -9t22.5 9t9.5 22v126q0 13 -9.5 22t-22.5 9zM988 415h-127q-13 0 -22.5 -9t-9.5 -22t9.5 -22t22.5 -9h127q13 0 22.5 9t9.5 22t-9.5 22t-22.5 9zM195 384q0 13 -9.5 22t-22.5 9h-127
q-13 0 -22.5 -9t-9.5 -22t9.5 -22t22.5 -9h127q13 0 22.5 9t9.5 22zM766 603q13 0 22 9l64 63q9 9 9 22t-9 22t-22.5 9t-22.5 -9l-63 -62q-10 -10 -10 -22.5t9.5 -22t22.5 -9.5zM236 156l-64 -63q-9 -9 -9 -22t9 -22t22.5 -9t22.5 9l63 62q10 10 10 22.5t-9.5 22t-22.5 9.5
t-22 -9zM788 156q-9 9 -22 9t-22.5 -9.5t-9.5 -22t10 -22.5l63 -62q9 -9 22.5 -9t22.5 9t9 22t-9 22zM236 612q9 -9 22 -9t22.5 9.5t9.5 22t-10 22.5l-63 62q-9 9 -22.5 9t-22.5 -9t-9 -22t9 -22z" />
    <glyph glyph-name="uniE62F" unicode="&#xe62f;" 
d="M231 811.5q-116 -76.5 -177 -198.5t-53.5 -258t84 -252t198.5 -177t258 -53.5t252 84t177 198.5t53.5 258t-84 252t-198.5 177t-258 53.5t-252 -84zM770 -9q-107 -70 -232 -77t-237 49t-182 163t-77 232t49 237t163 182t232 77t237 -49t182 -163t77 -232t-49 -237
t-163 -182zM270.5 751.5q-99.5 -65.5 -152 -170.5t-46 -222t72 -216.5t170.5 -152t222 -46t216.5 72t152 170.5t46 222t-72 216.5t-170.5 152t-222 46t-216.5 -72zM742 34.5q-95 -62.5 -206.5 -69t-211.5 43.5t-162 145t-68.5 206.5t43.5 211.5t145 162t206.5 68.5
t211 -43.5t162 -145t69 -206.5t-43.5 -211t-145 -162zM291 396q3 52 29 97.5t70.5 75t97.5 35.5t100 -12l22 14q-54 25 -116.5 20t-115 -39.5t-81 -89t-28.5 -115.5zM733 372q-3 -52 -29 -97.5t-70.5 -75t-98 -35t-99.5 12.5l-22 -15q54 -25 116.5 -20.5t115 39.5t81 89.5
t28.5 115.5zM317 253l183 120l12 -19l-57 -38l29 -43q6 -10 14 -5l26 17q4 3 3 8t-14 28l22 7q18 -34 17 -43t-12 -16l-36 -24q-21 -14 -37 10l-32 48l-31 -20l1 -1q18 -31 15 -60q-4 -28 -33 -60l-23 11q28 30 32 52q2 21 -11 44v1l-55 -36zM447 449l32 -49l-20 -13l-20 30
l-139 -92l20 -30l-21 -13l-32 49l78 51q-9 7 -18 13l20 18q9 -6 20 -16zM323 312l118 78l13 -19l-118 -78zM604 584q22 -2 39 -6l-3 -16l25 17l12 -19l-62 -41q27 -36 45 -52q3 -4 10 -9q-2 32 -13 67l23 4q14 -49 13 -89q8 -5 16 -8q18 -8 23 -4q5 2 -12 35l25 3
q20 -49 5 -59q-14 -9 -41 0q-8 3 -18 8q-5 -37 -25 -68l-22 10q21 33 25 72q-11 8 -24 19q-23 20 -50 58l-67 -45l20 -30l51 34q36 -57 41 -76q3 -16 -13 -27q-7 -5 -18 -10l-17 14q16 9 21 13q6 4 3 12t-25 42l-31 -21l1 -1q36 -58 35 -109l-23 3q1 42 -32 93l-46 70l86 56
q-5 7 -20 30l20 13q7 -11 21 -30l32 21q-16 4 -35 6zM296 712l33 -26l35 23l-14 -39l32 -27l-42 2l-15 -39l-11 40l-42 2l35 24zM178 590l41 -10l22 36l3 -42l41 -10l-39 -16l3 -42l-27 32l-39 -16l22 36zM455 773l19 -38l42 6l-31 -30l19 -37l-37 19l-30 -29l7 41l-38 20
l42 6zM625 760l1 -42l40 -12l-40 -14l1 -42l-25 33l-40 -14l24 35l-26 34l41 -13zM122 430l41 8l5 42l21 -37l41 8l-28 -31l20 -36l-38 17l-29 -31l5 42zM728 56l-33 26l-36 -23l15 40l-32 26l42 -2l14 39l12 -40l42 -2l-36 -23zM846 178l-41 10l-22 -36l-3 42l-41 10l39 16
l-3 42l27 -32l39 16l-22 -36zM569 -4l-19 37l-42 -6l30 30l-18 37l37 -19l30 29l-7 -41l37 -20l-41 -6zM399 8l-1 42l-40 12l40 14l-1 42l25 -33l40 14l-24 -35l25 -33l-40 12zM902 338l-41 -8l-5 -42l-21 37l-41 -8l28 31l-20 36l38 -17l29 31l-5 -42z" />
    <glyph glyph-name="uniE630" unicode="&#xe630;" 
d="M385 781q-9 0 -15.5 7t-6.5 16t6.5 16t15.5 7h254q9 0 15.5 -7t6.5 -16t-6.5 -16t-15.5 -7h-254zM254 144q-9 0 -16 6.5t-7 16t7 16t16 6.5h516q9 0 16 -6.5t7 -16t-7 -16t-16 -6.5h-516zM254 341q-9 0 -16 7t-7 16t7 16t16 7h516q9 0 16 -7t7 -16t-7 -16t-16 -7h-516z
M254 532q-9 0 -16 7t-7 16t7 16t16 7h516q9 0 16 -7t7 -16t-7 -16t-16 -7h-516zM759 781q-9 0 -16 7t-7 16t7 16t16 7h116q28 0 48 -20t20 -48v-750q0 -28 -20 -48v0h-1q-20 -20 -47 -20h-726q-28 0 -48 20t-20 48v750q0 28 20 48t48 20h116q9 0 16 -7t7 -16t-7 -16t-16 -7
h-116q-9 0 -15.5 -6.5t-6.5 -15.5v-750q0 -9 6.5 -15.5t15.5 -6.5h726q9 0 16 6q6 7 6 16v750q0 9 -6.5 15.5t-15.5 6.5h-116zM922 -39q-6 -6 -15.5 -6t-15.5 6h31z" />
    <glyph glyph-name="uniE631" unicode="&#xe631;" 
d="M741 731h-463v55q0 5 3.5 8.5t8.5 3.5h439q5 0 8.5 -3.5t3.5 -8.5v-55zM741 170h-463v528h463v-528zM741 -16q0 -5 -3.5 -8.5t-8.5 -3.5h-439q-5 0 -8.5 3.5t-3.5 8.5v153h463v-153zM729 831h-439q-19 0 -32 -13.5t-13 -31.5v-802q0 -19 13 -32t32 -13h439q19 0 32 13
t13 32v802q0 18 -13 31.5t-32 13.5zM460 71h99v-33h-99v33z" />
    <glyph glyph-name="uniE632" unicode="&#xe632;" 
d="M500.5 300q-105.5 0 -180 74.5t-74.5 180t74.5 180.5t180 75t180 -75t74.5 -180.5t-74.5 -180t-180 -74.5zM500.5 745q-78.5 0 -134 -56t-55.5 -134.5t55.5 -134t134 -55.5t134 55.5t55.5 134t-55.5 134.5t-134 56zM847 -42h-670v262l152 103l37 -54l-124 -84v-162h540
v159l-120 88l38 52l147 -107v-257z" />
    <glyph glyph-name="uniE633" unicode="&#xe633;" 
d="M865 607q-27 127 -125 208t-227 81q-35 0 -72 -7q-70 -14 -129 -53t-99 -99q-84 -124 -54 -272q14 -72 62 -172q69 -145 190 -317q16 -23 56 -77l1 -1l4 -6l1 -1q17 -19 38 -19q23 0 43 23q82 109 149 217q108 175 151 311q30 94 11 184zM804 438q-41 -130 -145 -299
q-65 -104 -146 -211l-1 -1v-1l-2 3v1h-1q-37 51 -55 76q-119 169 -186 309q-45 94 -58 160q-25 127 46 233t195 130q32 6 62 6q110 0 194 -69.5t107 -178.5q16 -76 -10 -158zM507.5 708q-68.5 0 -117 -48.5t-48.5 -117t48.5 -117.5t117 -49t117.5 49t49 117.5t-49 117
t-117.5 48.5zM508 428q-47 0 -80.5 33.5t-33.5 80.5t33.5 80.5t80.5 33.5t80.5 -33.5t33.5 -80.5t-33.5 -80.5t-80.5 -33.5z" />
    <glyph glyph-name="uniE634" unicode="&#xe634;" 
d="M710 531h-17v-428h-56v428h-94v-428h-56v428h-94v-428h-56v428h-36h-77v-448q0 -30 22.5 -52t54.5 -22h409q32 0 54.5 22t22.5 52v448q0 1 -9 1t-30.5 -0.5t-37.5 -0.5zM824 665h-168v46q0 19 -26 33.5t-49 14.5h-150q-24 0 -49.5 -14.5t-25.5 -33.5v-46h-169
q-15 0 -26.5 -11t-11.5 -26.5t11.5 -26.5t26.5 -11h637q16 0 27 11t11 26.5t-11 26.5t-27 11zM581 665h-150v19h150v-19z" />
    <glyph glyph-name="uniE635" unicode="&#xe635;" horiz-adv-x="1220" 
d="M610 792q-110 0 -203 -53t-147 -145t-54 -200.5t54 -200t147 -145t202.5 -53.5t202.5 53.5t147 145t54 200t-54 200.5t-147 145t-202 53v-48q96 0 178 -47t129 -127.5t47 -175.5t-47 -176t-129 -127.5t-178.5 -46.5t-178 46.5t-129 127.5t-47.5 176t47.5 175.5t129 127.5
t178.5 47v48zM787 -20q125 52 201.5 164.5t76.5 249.5q0 91 -36 174t-97 143.5t-145.5 96t-177 35.5t-177 -35.5t-145.5 -96t-97 -143.5t-36 -174q0 -83 30 -160q3 -10 -1 -19t-13.5 -12.5t-18.5 0.5t-13 13q-1 4 -3 8h-5q-54 0 -92 37.5t-38 90.5q0 49 32.5 85t80.5 42
q20 116 90 210.5t177 148.5t229.5 54t229.5 -54t177 -148.5t90 -210.5q48 -6 80.5 -42t32.5 -85q0 -53 -38 -90.5t-92 -37.5h-5q-36 -98 -109 -173.5t-171 -116.5q-1 -25 -19 -42.5t-44 -17.5t-44.5 18.5t-18.5 44t18.5 44t44.5 18.5q27 0 46 -19zM610 285q-85 0 -159 28
q-23 9 -42 19q-9 5 -14 8q-14 10 -28 -0.5t-9 -27.5q27 -80 96.5 -129.5t155.5 -49.5t155 49.5t96 129.5q5 17 -9 27.5t-28 0.5q-5 -3 -14 -8q-19 -10 -42 -19q-74 -28 -158 -28z" />
    <glyph glyph-name="uniE636" unicode="&#xe636;" horiz-adv-x="1037" 
d="M666 282q31 56 55 118.5t32 96.5l9 34h-13h-109h-115v90h281v38h-281v135h-128v-135h-256v-38h256v-90h-218v-38h442q0 -7 -7 -13q0 -45 -57 -160q-48 19 -91.5 32.5t-78 22t-66.5 12.5t-55 5.5t-46 -0.5t-36.5 -4.5t-28.5 -7.5t-21 -8t-15.5 -8t-9.5 -6
q-45 -31 -69.5 -67t-28 -68.5t3.5 -64t23.5 -57t34 -44.5t33 -29t22.5 -9q286 -63 480 167q6 -7 19 -7q71 -38 410 -198v192q-9 0 -21.5 2t-31 6.5t-36 9t-44 13t-45 14t-49.5 16.5l-48 16q-17 5 -50.5 16t-45.5 16zM499 224q-45 -58 -98.5 -92.5t-96 -45t-87 -9t-65.5 7
t-37 11.5q-28 7 -46.5 34t-22 59t12.5 64t50 48q57 18 114 20t110.5 -11t93 -28.5t85.5 -38.5z" />
    <glyph glyph-name="uniE637" unicode="&#xe637;" 
d="M897 540zM971 462q35 43 35 97q0 64 -45.5 109.5t-109.5 45.5t-109 -45.5t-45 -109.5t45 -109t109 -45q21 0 42 6q-100 -67 -120 -80q-19 -12 -50.5 -14t-44.5 5q-9 4 -53.5 23.5t-49.5 21.5q-15 6 -20 28.5t7 37.5q17 22 81 105.5t77 104.5q14 24 -1 38t-43 -1
q-17 -10 -67.5 -45t-93.5 -65l-42 -30q-3 -2 -8.5 -5t-21.5 -7.5t-31 -3.5q-21 1 -65 4t-55 4q-105 3 -156 -79q-14 -22 -32 -54.5t-47 -103t-41 -129.5q-1 -6 -1 -19t1 -23v-10h227l24 105q9 22 32 21q41 -2 120 -20t157 -39.5t83 -22.5q26 -6 46 1.5t43 27.5
q11 10 118.5 114t127.5 124q17 16 7.5 31t-30.5 6zM913 566v-18h-44v-24h44v-18h-44v-36h-22v36h-45v18h45v24h-45v18h38l-46 80h25q33 -59 40 -75q2 6 13 26l27 49h24l-48 -80h38zM994 425zM923 646z" />
    <glyph glyph-name="uniE638" unicode="&#xe638;" 
d="M693 548q15 0 35 -3q-23 110 -127.5 182.5t-238.5 72.5q-98 0 -181 -40.5t-132 -112t-49 -155.5q0 -144 145 -245l-36 -109l127 64q6 -2 25 -5.5t27 -5t22.5 -4t26.5 -3.5t25 -1q16 0 34 2q-11 38 -11 76q0 119 89.5 203t218.5 84zM498 646q21 0 33.5 -12.5t12.5 -33
t-12.5 -33t-33.5 -12.5t-37.5 13t-16.5 32.5t16.5 32.5t37.5 13zM245 555q-22 0 -38.5 13t-16.5 32.5t16.5 32.5t38.5 13q20 0 32.5 -12.5t12.5 -33t-12.5 -33t-32.5 -12.5zM1024 265q0 71 -43 132t-113.5 96t-151.5 35q-129 0 -218.5 -77t-89.5 -186t89.5 -186t218.5 -77
q37 0 109 18l99 -54l-27 90q127 96 127 209zM616 311q-13 0 -24.5 11t-11.5 24.5t11.5 25t24.5 11.5q20 0 33 -11t13 -25.5t-13 -25t-33 -10.5zM815 311q-13 0 -24.5 11t-11.5 24.5t11.5 25t24.5 11.5q20 0 33 -11t13 -25.5t-13 -25t-33 -10.5z" />
    <glyph glyph-name="uniE639" unicode="&#xe639;" 
d="M932 496h-837q-13 0 -22 -9t-9 -22v-146q0 -13 9 -22t22 -9h43l39 -322q1 -12 10 -20t21 -8h611q12 0 21 8t10 20l38 322h44q13 0 22 9t9 22v146q0 13 -9 22t-22 9zM901 434v-80h-775v80h775zM791 0h-555l-38 317h631zM331 565l189 188l190 -188q9 -9 22 -9t22 9t9 21.5
t-9 22.5l-212 209q-9 9 -22 9t-22 -9l-211 -209q-10 -10 -10 -22.5t9.5 -21.5t22.5 -9t22 9z" />
    <glyph glyph-name="uniE63A" unicode="&#xe63a;" 
d="M819 8h-614q-28 0 -48 20t-20 49v614q0 28 20 48t48 20h341h46h22q10 0 16.5 -6.5t6.5 -16t-6.5 -16t-16.5 -6.5h-22h-46h-318q-19 0 -32.5 -13.5t-13.5 -32.5v-569q0 -19 13.5 -32t32.5 -13h568q19 0 32.5 13t13.5 32v364v42v4q0 9 6.5 16t16 7t16 -7t6.5 -16v-46v-386
q0 -29 -20 -49t-48 -20zM448 310q-7 -7 -16.5 -7t-16 6.5t-6.5 16t6 16.5l409 411q7 7 16.5 7t16 -7t6.5 -16t-6 -16z" />
    <glyph glyph-name="uniE63B" unicode="&#xe63b;" 
d="M997 497q-113 118 -155 161q-49 52 -58 61q-15 17 -36 17h-269q-12 0 -13 0.5t-1 13.5q0 3 0.5 27t-1.5 28q-4 29 -26 50t-52 23t-55 -15.5t-33 -46.5q-3 -12 -3 -36v-1v-19v-19q1 -5 -5 -5h-232q-19 0 -31 -12t-12 -32v-168v-14v-14v-2v-219q0 -20 12 -32t31 -12h114
h117q6 0 6 -6v-33v-38v-32v-1v-4v-5v-5v-1v-132q0 -6 1 -14q5 -35 35 -56.5t65 -14.5q31 6 50 29.5t19 54.5v253q0 5 6 5h152h126q22 0 35 17q3 3 5 6q30 31 177 185q26 27 30 32q13 14 1 26zM321 740v25v1v4v9v1v14q0 24 17.5 41t41.5 17t41.5 -17t17.5 -41q1 -9 1 -27v-27
q0 -4 -5 -4h-16h-22h-22h-2h-10h-11h-2h-25q-3 0 -3.5 0.5t-0.5 3.5zM440 66q0 -86 -1 -95q0 -24 -17 -41t-41 -17q-25 0 -42.5 17t-17.5 42v76v16v21v20v2v4v5v4v2v1v50v54q0 4 4 4h38h2h7h12h2h49q5 0 5 -5v-160zM970 481q-54 -57 -193 -203l-12 -12q-6 -9 -18 -9h-362h-2
h-11h-9h-305q-18 0 -18 18v120v89q1 1 1 2q-1 55 -1 206q0 18 18 18h156h26h111h2h14h3h2h2h193h182q9 0 14 -6q3 -3 4 -5q140 -145 203 -211q4 -4 0 -7zM452 649q-28 14 -64 14q-37 0 -65 -14q-39 -20 -48 -56q-5 -18 1 -29q5 -12 18 -10q11 1 14 13q1 3 2 19q0 27 24 46
q14 10 42 13q34 4 59 -16q24 -19 26.5 -49.5t-19.5 -51.5q-5 -4 -15 -10.5t-13 -9.5q-30 -23 -37 -53q-5 -21 -5 -58q0 -2 1 -2q10 -1 12 0q2 0 2 6q0 22 3 39q4 31 38 53q2 1 15 9t20 13q38 28 34 70t-45 64zM379 368q-12 0 -20 -8.5t-8 -21.5t8 -21.5t19 -8.5q12 0 20 8.5
t8 21.5t-7.5 21.5t-19.5 8.5z" />
    <glyph glyph-name="uniE63C" unicode="&#xe63c;" 
d="M744 -67h-464q-25 0 -43.5 18.5t-18.5 44.5v776q0 26 18.5 44.5t43.5 18.5h464q25 0 43.5 -18.5t18.5 -44.5v-776q0 -26 -18.5 -44.5t-43.5 -18.5zM280 804q-13 0 -22 -9.5t-9 -22.5v-776q0 -13 9 -22.5t22 -9.5h464q13 0 22 9.5t9 22.5v776q0 13 -9 22.5t-22 9.5h-464z
M512 1q-17 0 -29 12t-12 28.5t12 28.5t29 12t29 -12t12 -28.5t-12 -28.5t-29 -12zM512 52q-10 0 -10 -10q0 -6 5 -8t10 0t5 8q0 10 -10 10zM732 112h-443q-6 0 -10.5 4.5t-4.5 10.5v622q0 6 4.5 10.5t10.5 4.5h443q6 0 10.5 -4.5t4.5 -10.5v-622q0 -6 -4.5 -10.5t-10.5 -4.5
zM305 143h412v590h-412v-590z" />
    <glyph glyph-name="uniE63D" unicode="&#xe63d;" 
d="M602 -65h-179q-55 0 -82 0.5t-70 3t-64 8t-44.5 15t-33 25t-9.5 36.5v18q0 123 89 210.5t214 87.5h179q125 0 214 -87.5t89 -210.5v-18q0 -16 -5.5 -29t-19.5 -22t-27 -15.5t-39 -10.5t-44 -6t-52.5 -3t-55 -1.5t-60.5 -0.5zM423 287q-103 0 -176.5 -72t-73.5 -174v-18
q0 -12 21.5 -20t66.5 -10.5t76 -3.5t86 -1h179q49 0 79 1t76.5 3.5t71 10.5t24.5 20v18q0 102 -73.5 174t-177.5 72h-179zM503.5 357q-99.5 0 -170 69.5t-70.5 167.5t70.5 167.5t170 69.5t170.5 -69.5t71 -167.5t-71 -167.5t-170.5 -69.5zM316 594.5q0 -76.5 55 -130.5
t133 -54t133 54t55 130.5t-55 130.5t-133 54t-133 -54t-55 -130.5z" />
    <glyph glyph-name="uniE63E" unicode="&#xe63e;" 
d="M907 405q-5 0 -11 -2v2h-341v342h-2q2 5 2 10q0 14 -9.5 23t-23 9t-22.5 -9t-9 -23q0 -5 2 -10h-2v-342h-342v-2q-5 2 -10 2q-14 0 -23 -9t-9 -22.5t9 -23t23 -9.5q5 0 10 2v-2h342v-341h2q-2 -6 -2 -11q0 -13 9 -22.5t22.5 -9.5t23 9.5t9.5 22.5q0 5 -2 11h2v341h341v2
q6 -2 11 -2q13 0 22.5 9.5t9.5 23t-9.5 22.5t-22.5 9z" />
    <glyph glyph-name="uniE63F" unicode="&#xe63f;" 
d="M439.5 121q-74.5 0 -142.5 28q-65 28 -115.5 78.5t-78.5 115.5q-29 68 -29 142.5t29 142.5q28 65 78.5 115.5t115.5 78.5q68 29 142.5 29t141.5 -29q66 -28 116.5 -78.5t78.5 -115.5q28 -68 28 -142.5t-28 -142.5q-28 -65 -78.5 -115.5t-116.5 -78.5q-67 -28 -141.5 -28z
M439 797q-129 0 -220.5 -91t-91.5 -220t91.5 -220.5t220.5 -91.5t220.5 91.5t91.5 220.5t-91.5 220t-220.5 91zM890.5 -49q-34.5 0 -58.5 24l-157 153l37 38l158 -153q8 -9 20.5 -9t21 9t8.5 21.5t-8 20.5l-1 1l-152 157l38 37l153 -157q24 -24 24 -58.5t-24.5 -59
t-59 -24.5zM281 327q-66 66 -66 158.5t66 158.5l38 -38q-50 -50 -50 -120.5t50 -120.5z" />
    <glyph glyph-name="uniE640" unicode="&#xe640;" horiz-adv-x="1179" 
d="M1104 896h-1030q-30 0 -52 -22t-22 -52v-709q0 -30 22 -52t52 -22h56q6 -16 19 -31q4 -3 9 -4q107 -28 122 -70q6 -18 -5 -33q-4 -6 -3.5 -13t6.5 -11.5t13.5 -4t11.5 6.5q23 29 11 65q-20 60 -142 93q-9 10 -9 19v1q0 11 13 20v1h1q3 2 7 4l2 2l12 4q14 3 35 3
q47 0 108 -18l21 -9q2 -2 6 -4q14 -8 26 -16h1l1 -1q37 -27 63.5 -51t36.5 -39.5t17 -29t4.5 -18t-0.5 -7.5v0q-3 -6 -1 -13t9 -11q4 -2 8 -2q11 0 16 10q2 4 3.5 11t-0.5 22t-10 31.5t-29 41t-53 51.5h316q-32 -27 -53 -51.5t-29.5 -41t-10.5 -31.5t-0.5 -21.5t4.5 -11.5
q5 -10 16 -10q4 0 8 2q7 3 9 10t-1 14q-1 1 -1 2.5t1 9t4 15t11.5 20.5t21 27t34.5 32.5t50 38.5q13 9 28 17q4 3 5 3l22 11q61 18 108 18q20 0 35 -4q8 -3 11 -4q1 -1 2 -1q5 -3 8 -5l1 -1q12 -9 12 -20v-1q0 -9 -8 -19q-122 -33 -142 -93q-12 -36 10 -65q5 -6 12.5 -6.5
t13 4t6.5 12t-4 12.5q0 1 -2 4.5t-3.5 11.5t1.5 16q14 42 122 71q5 1 8 4q14 15 19 31q31 1 52 22.5t21 51.5v709q0 30 -22 52t-52 22zM190 554h158q22 -75 -8 -160l-2 -5q-9 -25 -13 -41.5t-0.5 -53t19.5 -80.5q26 -64 0 -102q-1 0 -2.5 0.5t-2.5 0.5q-31 12 -61 16
q-4 1 -6 1q-14 1 -26 1h-3h-3q-10 0 -20 -1q-1 0 -3 -0.5t-3 -0.5l-2 -1h-2q15 68 -9 103q-16 25 -17 85t17 116q13 37 -11 122zM891 214q17 44 20 80.5t-0.5 53t-12.5 41.5l-2 5q-30 85 -8 159h158q-24 -84 -11 -121q18 -56 17 -116.5t-18 -84.5q-23 -35 -9 -103l-4 1h-3
q-10 2 -24 2h-1h-2q-49 0 -99 -20q-26 39 -1 103zM1142 113q0 -15 -10.5 -26.5t-26.5 -11.5q-4 10 -11 19l-2 2h-1v1l-1 1q-3 3 -8 7q-1 1 -2 1.5t-2 1.5q-4 2 -8 5l-2 1l-1 1q-1 0 -1 1h-1q-20 67 -1 95q22 34 23.5 104t-19.5 129q-9 29 16 110h6q8 0 13 5t5 12.5t-5 12.5
t-13 5h-20h-196h-15q-7 0 -12.5 -5t-5.5 -12q0 -11 10 -16q-21 -83 11 -174l2 -5q8 -22 11 -36t0 -45t-17 -68q-30 -78 1 -132q-18 -9 -36 -21h-410q-1 0 -4 2q-13 9 -29 18q-1 0 -4 2q32 53 2 131q-15 37 -18 68t0 45t11 36l2 5q32 91 11 174q10 5 10 16q0 7 -5 12.5
t-13 5.5h-15h-196h-20q-7 0 -12 -5.5t-5 -13t5 -12.5t12 -5h7q25 -81 15 -110q-20 -58 -18.5 -129t23.5 -104q18 -28 -2 -95l-1 -1q-1 0 -2 -1t-2 -1q-4 -3 -7 -5q-1 0 -2 -1t-2 -1q-5 -4 -8 -8l-2 -1l-1 -1l-1 -1q-2 -2 -6 -8v-1q-3 -6 -5 -11h-56q-16 0 -27.5 11.5
t-11.5 27.5v708q0 16 11.5 27t27.5 11h1029q16 0 27 -11t11 -27v-709zM1142 113zM551 637q0 7 -5 12t-13 5q-60 0 -136 56q-10 7 -13 9q-7 4 -14 2t-11 -8.5t-2 -13.5t8 -11q4 -2 11 -7q85 -62 157 -62q8 0 13 5t5 13zM551 637zM807 719q-4 -3 -13 -9q-76 -56 -137 -56
q-7 0 -12 -5t-5 -12.5t5 -12.5t12 -5q73 0 158 62q9 6 10 7q7 4 8.5 11.5t-2 13.5t-11 8t-13.5 -2zM807 719zM716 234l-120 54q-7 3 -15 0l-106 -54q-7 -4 -9.5 -11t1 -13.5t10.5 -9t14 1.5l99 50l112 -51q3 -1 7 -1q12 0 17 10q3 7 0 14t-10 10zM716 234z" />
    <glyph glyph-name="uniE641" unicode="&#xe641;" 
d="M405 398h-173q-38 0 -65 27.5t-27 65.5v163q0 38 27 65t65 27h173q38 0 65.5 -27t27.5 -65v-163q0 -38 -27.5 -65.5t-65.5 -27.5zM232 696zM792 398h-173q-38 0 -65.5 27.5t-27.5 65.5v163q0 38 27.5 65t65.5 27h173q38 0 65 -27t27 -65v-163q0 -38 -27 -65.5t-65 -27.5z
M619 696zM405 22h-173q-38 0 -65 27t-27 65v163q0 38 27 65.5t65 27.5h173q38 0 65.5 -27.5t27.5 -65.5v-163q0 -38 -27.5 -65t-65.5 -27zM232 319zM792 22h-173q-38 0 -65.5 27t-27.5 65v163q0 38 27.5 65.5t65.5 27.5h173q38 0 65 -27.5t27 -65.5v-163q0 -38 -27 -65
t-65 -27zM619 319q-18 0 -30 -12t-12 -30v-163q0 -17 12 -29.5t30 -12.5h173q17 0 29.5 12.5t12.5 29.5v163q0 18 -12.5 30t-29.5 12h-173zM619 319z" />
    <glyph glyph-name="uniE642" unicode="&#xe642;" 
d="M358 615h547q18 0 30.5 12.5t12.5 30.5t-12.5 30.5t-30.5 12.5h-547q-18 0 -30.5 -12.5t-12.5 -30.5t12.5 -30.5t30.5 -12.5zM905 462h-547q-18 0 -30.5 -12.5t-12.5 -30.5t12.5 -31t30.5 -13h547q18 0 30.5 13t12.5 31t-12.5 30.5t-30.5 12.5zM905 223h-547
q-18 0 -30.5 -13t-12.5 -30.5t12.5 -30.5t30.5 -13h547q18 0 30.5 13t12.5 30.5t-12.5 30.5t-30.5 13zM153 736q-32 0 -54.5 -23t-22.5 -55t22.5 -55t54.5 -23t55 23t23 55t-23 55t-55 23zM153 496q-32 0 -54.5 -22.5t-22.5 -54.5t22.5 -55t54.5 -23t55 23t23 55t-23 54.5
t-55 22.5zM153 257q-32 0 -54.5 -22.5t-22.5 -55t22.5 -55t54.5 -22.5t55 22.5t23 55t-23 55t-55 22.5z" />
    <glyph glyph-name="uniE643" unicode="&#xe643;" 
d="M512 888q-102 0 -195.5 -40t-161 -107.5t-107.5 -161t-40 -195.5t40 -195.5t107.5 -161t161 -107.5t195.5 -40t195.5 40t161 107.5t107.5 161t40 195.5t-40 195.5t-107.5 161t-161 107.5t-195.5 40zM808 28q-15 8 -83.5 26.5t-82.5 27.5q-20 13 -20 121l20 17
q6 47 14.5 63.5t18.5 41.5t16 42l6 17q20 15 20 40q0 12 -5 22t-10 14l-5 5q7 71 7 120q0 78 -47 120t-136 42q-92 0 -147.5 -40t-55.5 -122q0 -22 4 -52t8 -49l4 -19q-20 -15 -20 -41q0 -11 5 -21t10 -15l5 -4q24 -73 40 -101q5 -7 8.5 -22.5t4.5 -27.5l1 -13l20 -17
q1 -12 2 -29.5t-4 -50.5t-18 -41q-14 -9 -84.5 -28.5t-84.5 -27.5q5 -5 22 -17.5t62 -35.5t92 -37q-151 40 -248.5 164t-97.5 284q0 94 36.5 180t98.5 148t148 98.5t180 36.5t180 -36.5t148 -98.5t98.5 -148t36.5 -180q0 -105 -44.5 -198t-122.5 -158zM433 -72q-15 2 -33 7
q8 -2 33 -7zM433 -72z" />
    <glyph glyph-name="uniE644" unicode="&#xe644;" 
d="M925 -91h-3h-404q-5 0 -6 4q-3 8 -11 1l-3 -5h-370v22v2q0 23 1 25q1 17 2 29q6 47 17 79q11 29 28 51q6 9 14 17q14 13 31 22q18 10 25 13q8 4 24 10.5t20 8.5q7 3 11.5 6t7.5 11q3 9 13 18q1 1 16.5 13t22.5 20q8 9 11 13q16 15 30 20q3 2 5 2q4 0 4 5q0 20 -8 38
q-3 5 -7 14l-7 13q-3 6 -9 18.5t-7 15.5q-2 3 -3 5q-3 3 -4 3q-13 3 -21 18q-26 45 -26 46q-8 15 -9 27v19q0 4 -4 5q-2 0 -2 3v21q0 1 -2 16q-5 -3 -6 -3q-6 -3 -5 3q0 4 0.5 10t0.5 7q0 4 -3 3q-2 -1 -6 0q-4 0 -3 4q2 7 6 22l1 7q-2 1 -3 1q-4 -2 -4.5 0t0.5 7l3 5
q-11 1 -12 1q-4 1 -2 5q1 3 7 12q1 1 5 8l-8 3t-1 8q4 3 6 5l3 2q-10 3 -11 3q0 1 -1 1h-1q-4 2 -2 5q2 6 10 13q2 3 10 12q0 1 8 12q-2 3 -3 3q-6 5 1 9q1 0 2.5 1t3.5 2t3 1l3 2q-5 2 -6 2q-6 4 -6 5q-2 3 2 6q2 1 5 3t5 4l12 12q2 2 14 15l2 2l-6 2q-1 0 -4.5 0.5
t-4.5 3.5t2 5q9 5 21 7q1 0 7 1.5t9 2.5q6 2 26 14q17 10 24 12l9 3q-1 1 -5.5 10t-4.5 14q7 1 19.5 -2.5t22.5 -1.5q-1 2 -3 8t-2 7.5t1 7.5q7 0 16 -6q12 -9 18 -9q3 -1 4 1q6 8 12 17q6 8 12 9l1 1h2q-4 -17 -4 -24l6 1q9 3 17 7q4 1 10 4t9 4l4 1q1 -2 0 -4t-2 -4.5
t-2 -3.5h8q16 -1 25 -3q9 -1 20 -3q12 -2 28 3q2 -3 -0.5 -6t-3.5 -4q18 2 28 3q1 -3 -7 -13l9 -7q7 -6 11 -9q1 -1 8 -7.5t11 -9.5q2 -2 7 -2q34 -6 42 -8q0 -5 -4 -7q-2 -1 -16 -7l8 -11q2 -3 10.5 -14.5t12.5 -17.5q1 -2 5 -9q1 -2 0 -2.5t-3 -0.5l-5 1q4 -9 4.5 -9.5
t4 -10.5t5.5 -14q1 -4 4 -8t-2 -7l-1 -1q3 -7 8.5 -18.5t8.5 -17.5q-3 0 -9 2t-9 1q1 -14 1 -15q1 -7 5 -22q0 -2 2 -6q2 -3 -1.5 -3.5t-5.5 -0.5q-4 1 -4 -2q0 -2 -1 -5.5t-1 -4.5v-1q2 -5 -1 -8q-4 -3 -8 -3q3 -16 3 -18.5t-1 -6.5h-1q-1 -1 -1 0l-4 3v-9q0 -11 -5 -20v-2
q4 -17 4 -31q-1 -12 -7 -22q-11 -18 -12 -20q-2 -3 -9 -23q-5 -13 -12 -17q-7 -3 -12 -3q-6 0 -9 -5q-6 -9 -10 -24q-5 -19 -16 -35q-9 -15 -13 -23q-4 -10 -2 -24q16 -1 29 -5q11 -5 21 -13q16 -13 26 -34q2 -5 17 -38q2 -3 4 -8.5t3 -7.5l1 -1q17 -14 20 -16q11 -8 26 -13
q17 -5 37 -18q37 -24 40 -26q12 -8 22 -18q9 -10 17 -31q8 -20 17 -56q3 -12 7 -38q2 -8 4 -28q1 -10 1 -19v-22zM679 420q11 -1 16 8q2 5 3 10q4 12 22 43q11 18 8 34q-3 15 -14 21q-4 3 -7 -1q-4 -5 -7 -9q-7 -10 -12 -11q-7 -1 -7 -7q0 -4 -5 -5q-4 0 -5 4q-2 10 -2 11v8
v6q-1 4 -5 6q-16 6 -34 7q-23 1 -42 -3q-21 -5 -34 -13q-2 -1 -2 -2v-24q0 -5 -4 -6q-6 -2 -8 3q-1 4 -2 22l1 6q-15 2 -33 -2v-21q0 -6 -3 -8q-5 -5 -6 1q0 1 -1 16q-2 9 -2 11t-2 3q-23 9 -41 13q-11 1 -20 2q-12 1 -19 0q-10 -2 -20 -6q-7 -3 -13 -9q-4 -3 -3 -16t0 -16
h-18q5 -34 6 -36q5 -29 11 -47q3 -9 14 -37q8 -20 25 -37q5 -5 14 -13q13 -13 18 -17q14 -11 29 -18q29 -12 62 -9q22 2 36 11q3 2 8.5 5t7.5 4q18 11 26 19q13 14 19 22q10 13 18 28q9 14 16 41q5 16 16 62q1 4 0 22q0 6 1 15l4 4l4 -4v-1q3 7 15 10q-1 -2 -4 -5
q-8 -10 -9 -16q-2 -7 3 -9q0 5 1 6q0 1 3 2q1 0 1 -2q2 -11 2 -16l-2 -13h4l-1 -3q0 -2 -1 -3q-2 -1 -3 -1l-2 1l-6 -5q0 -1 -1 -1h-2v4l1 3q-7 -5 -6 -17q5 -3 8 2l1 1l4 2q0 -1 1 -1q-2 -9 -7 -14q-3 -3 -6 -0.5t-4 2.5t-2 -4q0 -1 -2 -13zM532 -44q9 13 9 14q6 11 14 42
q8 28 18 40q4 5 13 14.5t10 11.5q16 18 19 21q24 33 37 90q1 2 -1 3.5t-5.5 4t-3.5 3.5q-19 13 -21 29q-2 14 -1 25l2 35q1 1 2 25l-3 -2q-9 -3 -31 -20q-16 -13 -33 -17q-18 -4 -45 -3q-12 1 -25 4q-14 4 -38 20q-19 14 -31 18v-4q0 -1 1.5 -17t2.5 -24q1 -19 -2 -32
t-10 -18q-11 -9 -17 -14q-8 -6 -8 -12q0 -12 1 -17q6 -30 20 -56q13 -23 26 -30q7 -4 25 -12q21 -9 29 -19q33 -38 38 -79q1 -13 8 -24zM680 539l1 1v20q-3 13 -8 31q-9 31 -9 43q0 1 -1 2q-15 19 -20 25l-6 6h-1q0 -2 0.5 -6.5t0.5 -8t-2 -7.5q-7 9 -7 10q-2 2 -4 5t-3 4
q-4 7 -7 10l-7 8q0 -12 -1 -13q-44 34 -65 45l3 -3q11 -12 12 -12q2 -3 5 -8q2 -4 -2 -4h-12q-2 1 -18 5q0 -3 -3 -2q-1 0 -3.5 1t-3.5 1q-5 2 -14.5 6.5t-13.5 6.5q-5 2 -6.5 1.5t-4.5 -4.5q-1 0 -2 -1t-1 -2q-21 -26 -31 -34l-3 -1l-2 3v6l-2 -4q-9 -14 -10 -14
q-7 -11 -15 -16l-9 -3v1q2 8 3 8q2 6 1 9q-22 -35 -23 -51q-2 0 -3.5 3.5t-1.5 4.5q-6 -12 -7 -13q-5 -11 -5 -13q-1 -3 -3 -23q-3 -23 -3 -24t-4 -13h8l5 11q6 9 21 13q24 7 57 4q22 -2 43 -12q7 -4 13 -2q5 1 25 -1q18 -1 27 5q13 9 40 12q19 2 36 1q21 -2 38 -8
q4 -1 5 -5q1 0 3 -4zM348 514q-8 5 -9 6q-5 3 -7 4q-7 2 -9 -1q-8 -16 -5 -32q2 -12 12 -29q3 -6 9.5 -17t9.5 -15q3 -6 6 -10q4 -5 11 -6q-4 22 -5 24q-1 4 -1.5 4t-4.5 -1t-5 2q-2 4 4 5l5 1l-1 5q-1 5 -6 6l1 -3l1 -4q-4 1 -5 1l-1 1q-9 9 -8 22q0 9 8 12l-1 -7v-7
q2 0 3 1l2 1q-3 25 -4 37zM366 753q7 8 21.5 18.5t18.5 14.5q-19 -9 -22 -10q-1 -1 -9 -2q-2 0 -3 1q0 1 1 2t7 6q-4 1 -7 -2q-5 -5 -21 -22l-2 -2v-1q8 5 15 11q4 -6 1 -14zM492 -13q0 7 -5 7q-2 0 -4.5 -2.5t-2.5 -4.5t2 -4.5t3 -2.5q7 0 7 7zM692 469q4 -1 5 4q2 7 -3 10
q-1 -2 -1 -4.5t-0.5 -5.5t-0.5 -4zM355 466v4l-0.5 0.5t-1.5 0.5l-5 -5h7zM492 -13q0 -7 -7 -7q-1 0 -3 2.5t-2 4.5t2.5 4.5t4.5 2.5q5 0 5 -7zM692 469q0 2 0.5 6.5t1.5 7.5q5 -3 3 -10q-1 -5 -5 -4zM355 466h-7l5 5q1 0 1.5 -0.5l0.5 -0.5v-4zM622 533q2 -10 3 -21
q4 -2 0 -6q-4 -5 -12 -5q-16 -1 -27 4l-8 5l1 1h8q-3 11 -2 16q0 1 -1 1q-10 -9 -12 -12q2 -5 3 -6h-1v-1q-2 0 -6 1t-6 2q5 14 19 23q16 9 37 7q14 -2 30 -13l12 -10l4 -6q-22 -2 -26 -3q-2 0 -4 1l-3 2l3 3l9 2h3q-5 7 -24 15zM602 530h-4q-6 -2 -6 -5q-1 -3 2 -5
q4 -3 7.5 -1.5t4.5 5.5q2 6 -4 6zM472 509q-1 8 -11 15q-1 -8 -1 -9l-1 -8h8v-1q-4 -4 -12 -7q-10 -3 -21 -3q-9 1 -14 6q-3 3 0 5q2 1 2 3q-2 9 0 17q-1 2 -7 0q-8 -2 -18 -11q6 -1 6 -2q9 -2 10 -2t1 -2q-1 -1 -2 -1q-13 -1 -24 3l-1 1q4 10 15 16.5t26 7.5q17 2 31 -3
q13 -5 18 -14h1q0 -2 2 -9q-3 0 -8 -2zM443 526q-9 1 -10 1q-3 0 -4 -2q-2 -3 1 -6q3 -4 7 -3q6 2 6 10zM587 374q-40 -9 -45 -11q-9 -2 -23 0q-4 1 -15.5 2.5t-17.5 2.5h-7h-6q-8 0 -10 6h4h25q11 -1 22 -3q15 -3 33 2q11 3 23 5q9 2 17 -4zM488 350q29 -15 76 1
q-3 -6 -10 -10q-9 -6 -22 -7q-20 -2 -33 6q-7 3 -11 10zM710 478q4 11 5 12q4 12 3 18q0 1 -3 14q11 -5 9 -23q-3 -19 -14 -21zM542 405l1 3q6 8 15 9q3 0 5 -2q5 -4 -1 -7q-8 -4 -20 -3zM509 406h-11q-2 0 -4 1l-3 1q-2 1 -2 3q0 5 4 5q10 0 16 -10zM555 477q2 -3 12 -29
q-7 4 -10.5 12.5t-1.5 16.5zM662 486l3 5q6 6 6 9h1l2 1q2 -1 2 -3q-1 -6 -7 -10q-1 0 -6 -2h-1zM377 491q4 -1 6 -8q-8 0 -6 8zM448 191q7 -12 14.5 -37t10.5 -33q-20 23 -25 70zM596 202l2 -3q-1 -37 -11 -59q0 11 4 32t4 29zM388 575q3 6 10 10q10 6 26 7q29 1 51 -12
q6 -3 15 -11l4 -8q1 -2 0 -3t-4 -1q-4 4 -26 8q-32 7 -75 10h-1zM549 561q2 9 12 17q14 10 38 16q17 4 30 2q14 -3 30 -16q-3 -4 -8 -4q-2 0 -7 0.5t-8 0.5q-7 1 -17 0q-8 -1 -17 -3q-34 -6 -45 -12q-4 -3 -8 -1zM336 473l-5 6q-6 13 -1 25t15 5q4 -3 0 -4q-3 -1 -7 0
q-2 0 -3 -2q-3 -4 -1 -12q0 -2 1 -5.5t1 -4.5t1 -8h-1z" />
    <glyph glyph-name="uniE645" unicode="&#xe645;" 
d="M215 254q41 47 90.5 82.5t95.5 54.5t92.5 31t85 15t68.5 3t47 -2l16 -2v-184l310 279l-310 278v-185q-95 1 -173.5 -19.5t-128.5 -51.5t-88 -73.5t-57 -78t-31 -74t-14 -52t-3 -21.5zM110 686h331v103h-435v-103h76l-76 -1v-620h104v621zM834 65h-828v-103h828h103v290
h-103v-187z" />
    <glyph glyph-name="uniE646" unicode="&#xe646;" 
d="M924 549q-34 77 -93.5 137t-137.5 94q45 35 101 35q69 0 117 -48.5t48 -116.5q0 -56 -35 -101zM917 367q0 -80 -29 -151.5t-82 -127.5l57 -56q12 -13 12 -30t-12 -29t-29.5 -12t-29.5 12l-61 61q-105 -73 -232 -73t-232 73l-60 -61q-13 -12 -30.5 -12t-29.5 12t-12 29.5
t12 29.5l57 57q-53 55 -82 127t-29 151q0 110 54.5 203.5t148 148t203.5 54.5t203.5 -54.5t148 -148t54.5 -203.5zM510.5 689q-87.5 0 -161.5 -43t-117 -117.5t-43 -162t43 -161.5t117 -117t161.5 -43t162 43t117.5 117t43 161.5t-43 162t-117.5 117.5t-162 43zM679 325
h-168q-17 0 -29.5 12t-12.5 30v224q0 17 12.5 29.5t29.5 12.5t29.5 -12.5t12.5 -29.5v-182h126q17 0 29.5 -12.5t12.5 -30t-12.5 -29.5t-29.5 -12zM99 543q-36 46 -36 104q0 69 49 118.5t119 49.5q58 0 104 -36q-80 -34 -141 -95.5t-95 -140.5z" />
    <glyph glyph-name="uniE647" unicode="&#xe647;" 
d="M1021 232l-193 -105l-64 -211l-211 63l-193 -104l-105 193l-211 64l63 211l-104 193l193 105l64 211l211 -63l193 104l105 -193l211 -64l-63 -211zM326 644q0 -78 -12 -159q-50 -4 -55 -62q-2 -62 44 -50v-232h80v278q0 21 -14 41q39 81 53 184h-96zM639 210v106h115v32
h-115v78h37q62 4 64 71v71q-2 67 -68 69h-234v-211h119v-209q-2 2 -11 4q-6 2 -12.5 4t-10 3.5t-5.5 2.5q14 68 9 153h-80q5 -71 0 -142q-48 -7 -48 -50q0 -42 39 -49q34 0 64 42q39 -30 69 -37q66 -12 176 -5l25 74q-55 -7 -133 -7zM520 458v147h106q36 2 34 -32v-88
q2 -27 -30 -27h-110zM422 169q-19 4 -12 36q14 26 35 14q-3 -53 -23 -50zM284 387q-16 2 -16 30q4 29 12.5 38t22.5 -4v-34q-7 -28 -19 -30zM284 387z" />
    <glyph glyph-name="uniE648" unicode="&#xe648;" 
d="M512 705q-106 0 -181 -75t-75 -182q0 -39 20.5 -90.5t50 -97t59 -85t50.5 -62.5l21 -23q23 -27 55.5 -27t55.5 27q8 9 21.5 24.5t48 60.5t61 87t48 94.5t21.5 91.5q0 107 -75 182t-181 75zM512 338q-49 0 -84 34.5t-35 84t35 84t84 34.5t84 -34.5t35 -84t-35 -84
t-84 -34.5z" />
    <glyph glyph-name="uniE649" unicode="&#xe649;" 
d="M513 686q-121 0 -207 -85.5t-86 -207.5q0 -118 83 -203q37 -33 76 -54q25 -13 49 -23q42 -12 85 -12q121 0 206.5 85.5t85.5 207t-85.5 207t-206.5 85.5zM513 145q-103 0 -176 72.5t-73 175.5t73 176t176 73t176 -73t73 -176t-73 -175.5t-176 -72.5zM353 334
q47 -39 97 -53t88 -7t69.5 20.5t48 26t16.5 13.5v-8q0 -5 -3.5 -20t-9 -28.5t-17 -30.5t-28 -29t-43 -20t-59 -8t-58.5 8t-42.5 20.5t-28.5 28t-17.5 31t-8.5 28t-3 20.5zM513 777q-134 0 -237.5 -82.5t-134.5 -208.5q-5 -1 -11.5 -3t-24.5 -10t-31 -20t-23 -35.5t-9 -52.5
t13.5 -51t28 -32.5t33.5 -17t26.5 -8t11.5 -1.5q4 -1 7.5 -0.5t13.5 2.5t12 3q-27 64 -27 133q0 96 47 177t128 128t176.5 47t176.5 -47t128 -128t47 -177q0 -114 -66.5 -205.5t-172.5 -127.5q-5 -1 -9 -1t-7 1l-2 1q-24 5 -53 -4q-11 -3 -16 -12.5t-4 -20.5q1 -27 24 -30
q52 -8 64 16q1 1 3 5t3 6.5t3.5 5t4.5 3.5q81 28 142.5 87t92.5 138q4 1 11.5 2.5t26 9t33.5 18.5t27 33t13 50t-8.5 50t-24 34t-29 20t-24.5 11l-11 2q-31 127 -134.5 209.5t-237.5 82.5z" />
    <glyph glyph-name="uniE64A" unicode="&#xe64a;" 
d="M955 566l-103 -291q-11 -30 -37.5 -48.5t-58.5 -18.5h-403q-37 0 -65 23t-35 59l-68 346l-23 103h-76q-9 0 -15.5 6.5t-6.5 15.5t6.5 15.5t15.5 6.5h94h1q3 -1 5 -1.5t3.5 -1.5t3.5 -2t3 -2.5t2 -3.5l2 -4v-2h1l23 -104h663q38 0 59.5 -30.5t8.5 -65.5v0zM911 606
q-9 12 -24 12h-655l64 -320q4 -20 20 -33.5t37 -13.5h403q19 0 34 11t21 28l103 290q5 14 -3 26v0zM337 161q36 0 62 -26t26 -62t-26 -62t-62 -26t-62 26t-26 62t26 62t62 26v0zM337 29q18 0 31 13t13 31t-13 31t-31 13t-31 -13t-13 -31t13 -31t31 -13v0zM725 161
q37 0 62.5 -26t25.5 -62t-25.5 -62t-62 -26t-62.5 26t-26 62t26 62t62 26v0zM725 29q19 0 32 13t13 31t-13 31t-31.5 13t-31.5 -13t-13 -31t13 -31t31 -13v0zM725 29z" />
    <glyph glyph-name="uniE64B" unicode="&#xe64b;" 
d="M955 496q-6 17 -20 28.5t-32 13.5l-232 35l-101 210q-8 16 -24 26t-34.5 10t-34.5 -10t-24 -26l-101 -210l-233 -35q-18 -2 -31.5 -13.5t-19.5 -28.5q-13 -36 15 -64l170 -170l-39 -236q-7 -38 26 -61q17 -12 37 -12q17 0 32 8l202 109l203 -109q15 -8 31 -8q21 0 38 12
q33 23 26 61l-40 236l171 170q27 28 15 64zM723 306q-22 -22 -17 -54l39 -236l-202 109q-15 8 -31.5 8t-31.5 -8l-203 -109l40 236q5 32 -17 54l-171 170l233 35q34 5 48 35l101 210l102 -210q14 -30 48 -35l233 -35z" />
    <glyph glyph-name="uniE64C" unicode="&#xe64c;" 
d="M323 446zM282 446q0 17 12 29t29 12t29 -12t12 -29t-12 -29t-29 -12t-29 12t-12 29zM510 446zM469 446q0 17 12 29t29 12t29 -12t12 -29t-12 -29t-29 -12t-29 12t-12 29zM698 446zM657 446q0 17 12 29t29 12t29 -12t12 -29t-12 -29t-29 -12t-29 12t-12 29zM843 113h-333
q-8 0 -14 6t-6 14.5t6 14.5t14 6h333q40 0 68 28.5t28 68.5v391q0 40 -28 68.5t-68 28.5h-665q-40 0 -68.5 -28.5t-28.5 -68.5v-391q0 -40 28.5 -68.5t68.5 -28.5h43q8 0 14 -6t6 -14.5t-6 -14.5t-14 -6h-43q-57 0 -97.5 40.5t-40.5 97.5v391q0 57 40.5 97.5t97.5 40.5h665
q57 0 97 -40.5t40 -97.5v-391q0 -57 -40 -97.5t-97 -40.5zM256 -45q-23 0 -39.5 16t-16.5 40v123q0 8 6 14t14.5 6t14.5 -6t6 -14v-123q0 -9 7.5 -13.5t15.5 0.5l235 153q7 5 15.5 3t13 -9t3 -15.5t-8.5 -12.5l-235 -153q-14 -9 -31 -9z" />
    <glyph glyph-name="uniE64D" unicode="&#xe64d;" 
d="M707 801q-57 0 -108.5 -27t-86.5 -74q-35 47 -86.5 74t-108.5 27q-104 0 -177.5 -80t-73.5 -194q0 -41 13 -83t25.5 -64t34.5 -57q26 -41 71 -91.5t86 -89t87.5 -79t65.5 -55.5t31 -24q14 -11 32 -11t32 11q12 9 31 24.5t65.5 55.5t87.5 78.5t86 89t71 91.5
q22 35 34.5 57t25.5 64t13 83q0 114 -73.5 194t-177.5 80v0zM839 358q-25 -39 -68 -87t-86 -88.5t-83 -75t-65 -53.5l-25 -20q-10 7 -26.5 20.5t-62 52.5t-85.5 76.5t-84 86.5t-69 88q-21 32 -32 53t-21 52.5t-10 63.5q0 89 57 151t138 62q59 0 107 -35t71 -91v0
q4 -14 17 -14t17 14q23 57 71 91.5t107 34.5q81 0 138 -62t57 -151q0 -46 -15.5 -83t-47.5 -86v0zM839 358z" />
    <glyph glyph-name="uniE64E" unicode="&#xe64e;" 
d="M849 439l-62 -64q-2 -6 -6 -9l-79 -81l36 -223q2 -15 -10.5 -24t-26.5 -2l-189 105l-189 -105q-6 -3 -12 -3q-8 0 -15 5q-13 9 -10 24l36 224l-154 157q-10 11 -5 26q0 1 4 6l1 2q3 3 5 4q5 4 11 5l211 33l10 22l84 179q7 15 23 15v0q16 0 23 -15l94 -202l211 -32h1
q11 -2 17 -10.5t4 -18.5q-2 -12 -13 -18z" />
    <glyph glyph-name="uniE64F" unicode="&#xe64f;" 
d="M847 631q9 -8 8 -21.5t-11 -25.5l-345 -406q-10 -11 -23.5 -14t-22.5 5q-9 7 -8.5 21t10.5 26l346 405q10 12 23.5 15t22.5 -5zM216 467q9 7 22 4.5t23 -14.5l219 -242q10 -12 11.5 -25.5t-7.5 -20.5q-8 -8 -21 -5t-24 14l-219 244q-10 11 -11 24t7 21z" />
    <glyph glyph-name="uniE650" unicode="&#xe650;" 
d="M774 547h-524l262 -328zM512 219z" />
    <glyph glyph-name="uniE651" unicode="&#xe651;" 
d="M349 646v-524l328 262zM677 384z" />
    <glyph glyph-name="uniE652" unicode="&#xe652;" 
d="M1001 -128h-140q-10 0 -16.5 7t-6.5 16.5t6.5 16.5t16.5 7h116v116q0 10 7 16.5t16.5 6.5t16.5 -6.5t7 -16.5v-140q0 -9 -7 -16t-16 -7zM1000.5 151q-9.5 0 -16.5 7t-7 17v139q0 10 7 16.5t16.5 6.5t16.5 -6.5t7 -16.5v-139q0 -10 -7 -17t-16.5 -7zM1000.5 431
q-9.5 0 -16.5 6.5t-7 16.5v139q0 10 7 17t16.5 7t16.5 -7t7 -17v-139q0 -10 -7 -16.5t-16.5 -6.5zM1000.5 710q-9.5 0 -16.5 6.5t-7 16.5v116h-116q-10 0 -16.5 7t-6.5 16.5t6.5 16.5t16.5 7h140q9 0 16 -7t7 -16v-140q0 -10 -7 -16.5t-16.5 -6.5zM721 -128h-139
q-10 0 -16.5 7t-6.5 16.5t6.5 16.5t16.5 7h139q10 0 17 -7t7 -16.5t-7 -16.5t-17 -7zM721 849h-139q-10 0 -16.5 7t-6.5 16.5t6.5 16.5t16.5 7h139q10 0 17 -7t7 -16.5t-7 -16.5t-17 -7zM695 431q20 0 33.5 -14t13.5 -33t-13.5 -33t-33.5 -14h-139v-139q0 -19 -14 -33
t-33 -14t-32.5 14t-13.5 33v139h-140q-19 0 -33 14t-14 33t14 33t33 14h140v139q0 19 13.5 33t32.5 14t33 -14t14 -33v-139h139zM442 849h-139q-10 0 -17 7t-7 16.5t7 16.5t17 7h139q10 0 16.5 -7t6.5 -16.5t-6.5 -16.5t-16.5 -7zM163 -128h-140q-9 0 -16 7t-7 16v140
q0 10 7 16.5t16.5 6.5t16.5 -6.5t7 -16.5v-116h116q10 0 16.5 -7t6.5 -16.5t-6.5 -16.5t-16.5 -7zM163 849h-116v-116q0 -10 -7 -16.5t-16.5 -6.5t-16.5 6.5t-7 16.5v140q0 9 7 16t16 7h140q10 0 16.5 -7t6.5 -16.5t-6.5 -16.5t-16.5 -7zM23.5 617q9.5 0 16.5 -7t7 -17v-139
q0 -10 -7 -16.5t-16.5 -6.5t-16.5 6.5t-7 16.5v139q0 10 7 17t16.5 7zM23.5 337q9.5 0 16.5 -6.5t7 -16.5v-139q0 -10 -7 -17t-16.5 -7t-16.5 7t-7 17v139q0 10 7 16.5t16.5 6.5zM303 -81h139q10 0 16.5 -7t6.5 -16.5t-6.5 -16.5t-16.5 -7h-139q-10 0 -17 7t-7 16.5t7 16.5
t17 7z" />
    <glyph glyph-name="uniE653" unicode="&#xe653;" 
d="M754 239q-49 4 -148.5 11.5t-146.5 11.5q3 1 8.5 4t7.5 4q46 33 136.5 97.5t134.5 96.5h-16q-75 31 -246.5 27.5t-239.5 -34.5q59 -4 175.5 -12t175.5 -12q-2 -3 -5 -8l-3 -7q-54 -35 -152 -99t-135 -88v-8q62 -8 129 -10t143 3t124 9.5t129 13.5v-8h-16q-7 -6 -17 -12
t-12 -9t-5 -12.5t-5 -28.5q6 -27 19 -91.5t20 -102.5q-1 -2 -3 -5l-4 -3h-32q-60 50 -135.5 92t-143.5 48q-81 -46 -247 -140q-5 3 -16 8t-16 7q4 21 56 304l-223 202q1 3 3 8t3 7v1t1 2q0 1 0.5 2.5t0.5 2.5q108 14 295 39q15 27 71.5 126t87.5 154h16q39 -82 135 -288
q57 -6 162 -16.5t149 -14.5q1 -3 4 -8.5t4 -7.5l-1 -1l-1 -1l-1 -1l-1 -1h-1l-1 -1l-1 -1l-1 -1l-1 -1l-1 -1l-1 -1l-1 -1l-1 -1l-1 -1l-1 -1l-1 -1l-1 -1l-1 -1l-1 -1l-1 -1l-1 -1l-1 -1l-1 -1l-1 -1l-1 -1l-1 -1l-1 -1l-1 -1l-1 -1l-1 -1l-1 -1l-1 -1l-1 -1l-1 -1l-1 -1
l-1 -1l-1 -1l-1 -1l-1 -1l-1 -1l-1 -1l-1 -1l-1 -1l-1 -1l-1 -1l-1 -1l-1 -1h-1l-1 -1l-1 -1l-1 -1l-1 -1l-1 -1l-1 -1l-1 -1l-1 -1l-1 -1l-1 -1l-1 -1l-1 -1l-1 -1l-1 -1l-1 -1l-1 -1l-1 -1l-1 -1l-1 -1l-1 -1l-1 -1l-1 -1l-1 -1l-1 -1l-1 -1l-1 -1l-1 -1l-1 -1l-1 -1
l-1 -1l-1 -1l-1 -1l-1 -1l-1 -1l-1 -1l-1 -1l-1 -1l-1 -1l-1 -1l-1 -1l-2 -1l-1 -1l-1 -1l-1 -1l-1 -1l-1 -1l-1 -1l-1 -1l-1 -1l-1 -1l-1 -1l-1 -1l-1 -1l-1 -1l-1 -1l-1 -1l-1 -1l-1 -1l-1 -1l-1 -1l-1 -1l-1 -1l-1 -1l-1 -1l-1 -1l-1 -1l-1 -1l-1 -1l-1 -1l-1 -1l-1 -1
l-1 -1l-1 -1l-1 -1l-1 -1l-1 -1l-1 -1h-1l-1 -1l-1 -1l-1 -1l-1 -1l-1 -1l-1 -1l-1 -1l-1 -1l-1 -1l-1 -1l-1 -1l-1 -1l-1 -1l-1 -1l-1 -1l-1 -1l-1 -1l-1 -1l-1 -1l-1 -1l-1 -1l-1 -1l-1 -1l-1 -1l-1 -1l-1 -1l-1 -1l-1 -1l-1 -1l-1 -1l-1 -1l-1 -1l-1 -1l-1 -1l-1 -1
l-1 -1l-1 -1l-1 -1l-1 -1l-1 -1l-1 -1l-1 -1h-1l-1 -1l-1 -1l-1 -1l-1 -1l-1 -1l-1 -1l-1 -1l-1 -1l-1 -1l-1 -1l-1 -1l-1 -1l-1 -1l-1 -1l-1 -1l-1 -1l-1 -1l-1 -1l-1 -1l-1 -1l-1 -1l-1 -1l-1 -1l-1 -1l-1 -1l-1 -1l-1 -1l-1 -1l-1 -1l-1 -1l-1 -1l-1 -1l-1 -1l-1 -1
l-1 -1l-1 -1l-1 -1l-1 -1l-1 -1l-1 -1l-1 -1l-1 -1h-1l-1 -1l-1 -1l-1 -1l-1 -1l-1 -1l-1 -1l-1 -1l-1 -1l-1 -1l-1 -1v-39z" />
    <glyph glyph-name="uniE654" unicode="&#xe654;" 
d="M219 -12v799q0 33 23 56.5t56 23.5q31 0 54 -21l527 -395q26 -20 31 -52.5t-15 -58.5q-7 -10 -16 -16l-533 -400q-26 -20 -59 -15t-52 31q-16 21 -16 48v0z" />
    <glyph glyph-name="uniE655" unicode="&#xe655;" 
d="M693 549q15 0 35 -2q-23 109 -127.5 181.5t-238.5 72.5q-98 0 -181 -40.5t-132 -111.5t-49 -156q0 -143 145 -245l-36 -109l127 64q6 -2 25 -5.5t27 -5t22.5 -4t26.5 -3t25 -0.5q16 0 34 1q-11 38 -11 76q0 119 89.5 203t218.5 84zM498 647q21 0 33.5 -12.5t12.5 -33
t-12.5 -33t-33.5 -12.5t-37.5 13t-16.5 32.5t16.5 32.5t37.5 13zM245 556q-22 0 -38.5 13t-16.5 32.5t16.5 32.5t38.5 13q20 0 32.5 -12.5t12.5 -33t-12.5 -33t-32.5 -12.5zM1024 266q0 71 -43 132t-113.5 96t-151.5 35q-129 0 -218.5 -77t-89.5 -186t89.5 -186t218.5 -77
q37 0 109 18l99 -54l-27 90q127 96 127 209zM616 312q-13 0 -24.5 11t-11.5 24.5t11.5 25t24.5 11.5q20 0 33 -11t13 -25.5t-13 -25t-33 -10.5zM815 312q-13 0 -24.5 11t-11.5 24.5t11.5 25t24.5 11.5q20 0 33 -11t13 -25.5t-13 -25t-33 -10.5z" />
    <glyph glyph-name="uniE656" unicode="&#xe656;" 
d="M621 489q63 -62 63 -151t-63 -152l-193 -193q-63 -63 -152 -63t-152 63l-3 3q-63 63 -63 152t63 152l135 135q-1 -61 22 -117l-88 -88q-34 -34 -34 -82t34 -82l4 -4q34 -34 82 -34t82 34l194 194q34 34 34 82t-34 82l-4 3q-10 11 -23 18l71 71q12 -9 21 -19zM903 772
l-3 3q-63 63 -152 63t-152 -63l-193 -193q-63 -63 -63 -152t63 -152l3 -3q10 -9 22 -19l71 71q-13 7 -23 17l-4 4q-34 34 -34 82t34 82l194 194q34 34 82 34t82 -34l4 -4q34 -34 34 -82t-34 -82l-88 -88q23 -56 22 -117l135 135q63 63 63 152t-63 152z" />
    <glyph glyph-name="uniE657" unicode="&#xe657;" 
d="M816 556l-349 -349q-13 -14 -32 -14t-32 14l-198 197q-13 13 -13 32t13.5 32.5t32.5 13.5t32 -14l165 -165l317 317q13 13 32 13t32.5 -13t13.5 -32t-14 -32z" />
    <glyph glyph-name="uniE658" unicode="&#xe658;" horiz-adv-x="1114" 
d="M0 849zM924 17q-29 0 -50.5 18.5t-25.5 47.5l-1 3h-291l-1 -3q-4 -29 -25.5 -47.5t-50.5 -18.5q-31 0 -53.5 22.5t-22.5 53.5q0 22 11 41l1 2l-179 601h-127q-3 0 -5 2t-2 5t2 5t5 2h3h135l42 -141h675q28 0 46 -20t18 -50v-193q-1 -29 -21.5 -49.5t-49.5 -21.5v0
l-549 -64l19 -63l4 4q21 17 48 17q29 0 50.5 -19t25.5 -47l1 -3h291l1 3q4 28 25.5 47t50.5 19q31 0 53.5 -22.5t22.5 -54t-22.5 -54t-53.5 -22.5zM923.5 155q-25.5 0 -43.5 -18t-18 -43.5t18 -44t43.5 -18.5t44 18.5t18.5 44t-18.5 43.5t-44 18zM479.5 155q-25.5 0 -44 -18
t-18.5 -43.5t18.5 -44t44 -18.5t43.5 18.5t18 44t-18 43.5t-43.5 18zM404 227l553 64q23 0 39.5 16.5t16.5 39.5v193q0 22 -12.5 39t-36.5 17h-671zM1046 116q-3 0 -5 2t-2 5v1v2q-1 22 -16.5 37t-36.5 16h-3q-3 0 -5 2.5t-2 5.5t2 5t5 2h2q28 -1 48 -21t21 -48v-2
q0 -3 -2.5 -5t-5.5 -2zM1094 134q-3 0 -5 2t-2 5v2v1q-1 22 -16.5 37t-37.5 16h-2h-1q-3 0 -5 2.5t-2 5.5t2 5t5 2h3q28 -1 48 -21t20 -48v-2q0 -3 -2 -5t-5 -2zM584 335q-5 0 -7 4l-78 136q-4 6 2 10q2 1 4 1q5 0 7 -4l78 -135q2 -3 1 -6t-4 -5q-1 -1 -3 -1zM709 343
q-4 0 -6 4l-78 135q-2 3 -1 6t3 5q2 1 4 1q4 0 7 -4l78 -136q4 -6 -3 -10q-2 -1 -4 -1zM835 350q-4 0 -6 4l-79 136q-3 6 3 10q2 1 4 1q4 0 6 -4l79 -135q1 -3 0.5 -6t-3.5 -5q-2 -1 -4 -1z" />
    <glyph glyph-name="uniE659" unicode="&#xe659;" 
d="M204 321h27h5h594h11h12q16 0 22.5 10.5t0.5 25.5l-77 162q-7 15 -23 25.5t-33 10.5h-134v121v117q0 16 -11.5 27.5t-27.5 11.5h-78q-16 0 -27.5 -11.5t-11.5 -27.5v-117v-121h-139q-16 0 -32.5 -10.5t-23.5 -25.5l-76 -162q-7 -15 -0.5 -25.5t22.5 -10.5zM835 263h-598
q3 -58 -6 -102t-42 -73q-25 -22 -36 -45.5t-7.5 -43.5t15.5 -36.5t31 -26.5h102q64 87 81 170l4 27q-1 -11 -4 -27q-24 -151 -38 -170h74q64 87 81 170l4 27q-1 -11 -4 -27q-24 -151 -38 -170h93q64 88 81 170l4 27q-1 -11 -4 -27q-23 -151 -37 -170h93q64 88 81 170l4 27
q-1 -11 -4 -27q-24 -151 -38 -170h94l6 3q4 2 14.5 9.5t17.5 17t11.5 26.5t2.5 37q-3 19 -7.5 55t-7 51.5t-6 40.5t-8 45t-9.5 42z" />
    <glyph glyph-name="uniE65A" unicode="&#xe65a;" 
d="M993 271q2 -18 -4 -55t-25 -81.5t-52.5 -91t-88 -84.5t-131 -62.5t-180.5 -24.5q-103 0 -180 24.5t-131.5 62.5t-88 84.5t-52.5 91t-25 81.5t-4 55q2 23 12.5 47.5t32.5 42.5t57 22.5t84 -12.5q42 -16 69.5 -31t57 -28t67.5 -21t101 -8q62 0 100.5 8t68 21t57 28t69.5 31
q50 17 84.5 12.5t56.5 -22.5t32.5 -42.5t12.5 -47.5zM511 44q53 0 98 9t82 24t66 34.5t52 40.5q52 48 83 108q-35 -37 -89 -65q-46 -25 -118 -45.5t-173 -20.5q-102 0 -174 20.5t-118 45.5q-54 28 -90 65q31 -60 83 -108q23 -21 52 -40.5t66 -34.5t81.5 -24t98.5 -9z
M265 439q-5 41 -14 75q-8 30 -20.5 58t-30.5 41q-20 12 -48.5 22t-55.5 18q-31 10 -65 16q34 6 65 14q27 7 55.5 17.5t48.5 22.5q18 11 30.5 40t20.5 58q9 34 14 75q4 -41 14 -75q8 -29 20 -58t31 -40q19 -12 48 -22.5t55 -17.5q32 -8 66 -14q-34 -6 -66 -16q-26 -8 -55 -18
t-48 -22q-19 -13 -31 -41t-20 -58q-10 -34 -14 -75zM760 439q-5 41 -15 75q-8 30 -20 58t-31 41q-19 12 -48 22t-55 18q-32 10 -66 16q34 6 66 14q26 7 55 17.5t48 22.5q19 11 31 40t20 58q10 34 15 75q4 -41 13 -75q8 -29 20.5 -58t31.5 -40q19 -12 47.5 -22.5t55.5 -17.5
q31 -8 65 -14q-34 -6 -65 -16q-27 -8 -55.5 -18t-47.5 -22q-19 -13 -31.5 -41t-20.5 -58q-9 -34 -13 -75zM392 444q0 25 10 47t25.5 38.5t37.5 25.5t47 9t47 -9t38 -25.5t26 -38.5t10 -47t-10 -47t-26 -38.5t-38 -25.5t-47 -9t-47 9t-37.5 25.5t-25.5 38.5t-10 47zM560 522
q-13 0 -23 -9t-10 -23t10 -23t23 -9q14 0 23 9t9 23t-9 23t-23 9z" />
    <glyph glyph-name="uniE65B" unicode="&#xe65b;" 
d="M996 67h-148q-4 54 -28 86t-66 57l-18 10q-12 8 -15.5 10t-13.5 7.5t-14.5 7t-14 5.5t-17 5.5t-18.5 3.5t-23.5 3.5t-26.5 2.5q41 36 68 88t35 92.5t9 80.5q2 45 -2.5 77.5t-20 61t-28 44.5t-40.5 49q31 11 69 11q97 0 142 -51t45 -155q0 -45 -13.5 -87t-35 -73.5
t-40 -51.5t-38.5 -36q69 -2 124 -22t87 -44q7 -5 12.5 -11t9.5 -11t7.5 -13.5t5.5 -13.5t3.5 -17t2 -17.5t1 -21t0.5 -22.5v-26v-29zM28 -57v76q0 51 19 76.5t58 42.5q119 53 306 53t306 -53q38 -17 57.5 -42.5t19.5 -76.5v-37v-39h-766zM414 233q-2 0 -5.5 -0.5t-14.5 1
t-22 4.5t-27 11.5t-30.5 20.5t-31 33t-30.5 47.5t-27 65.5t-22 85q-14 74 5.5 134.5t73 97.5t131.5 37q77 0 129 -37t71 -97.5t5 -134.5q-39 -210 -149 -258q-32 -13 -56 -10z" />
    <glyph glyph-name="uniE65C" unicode="&#xe65c;" 
d="M576 -36l-465 387l-6 -3q-4 -2 -11 -13t-7 -25.5t2.5 -24.5t5.5 -13l2 -2l479 -398q-14 28 -14 49q0 6 1.5 12.5t3.5 11.5t4 9.5t3 7.5zM578 -114q0 -6 4.5 -8t8.5 -2q1 1 78.5 51.5t154.5 100.5l76 51l1 30l-316 -209l-1 -2q-2 -1 -4 -4t-2 -8zM576 -84q5 -6 11 -3
q1 0 75 50.5t147 100.5l73 50v15l-301 -203q-9 -5 -5 -10zM585 -59l297 201v15l-301 -203q0 -1 -1 -2t-3 -3.5t0 -4.5zM882 203l-292 -194l-445 368l-18 -11l457 -394l313 218zM115 433l479 -397q-14 28 -14 49q0 9 3.5 19.5t6.5 17.5l4 6l-465 387l-6 -3q-4 -2 -11 -13
t-7 -25.5t2.5 -24.5t5.5 -13zM596 50q0 -6 4.5 -8.5t8.5 -1.5q1 1 78.5 51.5t154.5 100.5l76 51l1 30l-316 -209l-1 -2q-2 -1 -4 -4.5t-2 -7.5zM594 80q5 -6 11 -3q1 0 75 50.5t147 100.5t73 49v16l-302 -203q-8 -5 -4 -10zM603 105l297 201v15l-301 -203l-2 -2
q-1 -1 -2.5 -3.5t0.5 -4.5zM900 367l-292 -194l-445 368l-18 -11l457 -394l313 218zM133 601l479 -397q-14 28 -14 49q0 9 3.5 19.5t6.5 16.5l4 7l-465 387q-2 -1 -6 -3.5t-11 -13t-7 -25t2.5 -24.5t5.5 -13zM621 232q-7 -4 -7 -14q0 -6 4.5 -8.5t8.5 -1.5q1 1 78.5 51.5
t154.5 100.5l76 51l1 30zM612 248q5 -6 11 -3l295 200v16l-302 -203q-9 -5 -4 -10zM621 273l297 201v15l-301 -203l-2 -2q-1 -1 -2.5 -3.5t0.5 -5.5zM933 522l-432 374l-338 -198l457 -394zM317 656l225 133l85 -72l-222 -140zM488 592l-10 8l100 66l7 -10z" />
    <glyph glyph-name="uniE65D" unicode="&#xe65d;" horiz-adv-x="1109" 
d="M1078 28q-91 -53 -174 -145q-6 -6 -13 -1q-62 53 -115 126.5t-90.5 156.5t-63.5 165.5t-43 169.5q-2 6 -9.5 6t-9.5 -6q-41 -232 -164 -386t-343 -241q-7 -3 -11 3t2 11q217 200 302.5 441.5t69.5 558.5q0 4 3 7t8 2l206 -21q7 -1 8 -5.5t-2 -11t-6.5 -12t-6.5 -7.5
q-6 -7 -13.5 -11.5t-12.5 -6t-8.5 -4t-3.5 -6.5q-4 -44 -4 -64q15 -83 45 -163q61 -164 181.5 -311t267.5 -230q4 -3 4 -7.5t-4 -7.5z" />
    <glyph glyph-name="uniE65E" unicode="&#xe65e;" horiz-adv-x="1025" 
d="M759 393q-18 4 -23 11t-1 13l4 5q1 3 3.5 7.5t6.5 18t5 26.5t-4.5 29.5t-18.5 29.5q-16 16 -42.5 21.5t-52.5 1t-50 -11t-38 -12.5l-15 -6q-12 -4 -19.5 -5.5t-12 0.5t-6.5 4t-1.5 8t1 10.5t3 14.5t3.5 16q0 18 -2.5 32.5t-12.5 31.5t-26.5 25.5t-47 8t-70.5 -14.5
t-82 -41.5t-74 -57.5t-57 -57.5t-39 -45.5l-14 -18q-74 -99 -74 -202q7 -56 34 -100t65 -71.5t90 -47t99 -28t100 -13.5q87 -6 179.5 14.5t172.5 70.5t113 120q20 42 20.5 78t-12.5 58.5t-33.5 40t-38 25.5t-32.5 11zM403 30q-126 -6 -214.5 49t-88.5 139q0 83 88 143
t215 66q128 6 215.5 -42t87.5 -131q0 -84 -89.5 -151t-213.5 -73zM369 354q-149 -18 -149 -178q0 -2 0.5 -5.5t2.5 -13.5t6 -19t13.5 -19.5t22.5 -17.5q48 -26 97.5 -27t88.5 18.5t66 53.5q15 20 20.5 49t-2.5 58.5t-26 54.5t-55 38t-85 8zM326.5 132q-23.5 -3 -40 9
t-16.5 32t15.5 37t38.5 20q26 2 42.5 -10.5t16.5 -33.5q0 -19 -16.5 -35t-40 -19zM426 217q-8 -6 -16.5 -5.5t-12.5 7.5q-5 7 -3 17t10 15q9 7 17.5 6t13 -8t2 -16.5t-10.5 -15.5zM841 461q10 0 18 7t9 16v3q15 131 -88 152q-33 7 -63 2q-12 0 -20 -8.5t-8 -20t8 -19.5
t20 -8q36 7 57.5 0.5t30 -22.5t10.5 -32.5t0 -28.5l-2 -13q0 -12 8.5 -20t19.5 -8zM821 784q-59 14 -138 -1q-1 0 -2 -1t-2 -1l-1 -1q-12 -3 -20.5 -14t-8.5 -25q0 -16 12 -28t28 -12q22 3 37 9q6 0 20 2t38 -4.5t48 -15.5t49.5 -30t43.5 -50q31 -70 12 -134q-8 -19 -8 -38
q0 -17 11.5 -26.5t28.5 -9.5t26 6t13 27q21 65 16 118t-23 92t-49.5 67.5t-64 45t-66.5 24.5z" />
    <glyph glyph-name="uniE65F" unicode="&#xe65f;" 
d="M931 431q-68 16 -112 64q28 23 41 57q22 55 0.5 107.5t-73.5 73.5t-104.5 -2.5t-74 -78t0 -107t73.5 -73.5t103 2q26 -29 58 -47.5t51 -23t21 -2.5q7 8 11 15t5 10.5t0 4.5zM797 525q-13 19 -20 40q6 7 10 16q8 21 -0.5 41.5t-29 28.5t-41 -1t-29 -29.5t0.5 -41.5t29 -29
q12 -4 24 -3q9 -22 20 -40q-30 -9 -60 3q-37 15 -52.5 52t-0.5 74.5t52 53.5t74 1.5t52.5 -51.5t0.5 -75q-10 -24 -30 -40zM339.5 698q-102.5 0 -175 -69.5t-72.5 -167.5q0 -97 71 -167q-20 -38 -31 -78t-13 -71t-1 -56.5t4 -39t5 -13.5q17 -6 31 -8.5t21.5 -2t6.5 3.5
q-17 122 33 224q56 -30 121 -30q102 0 174.5 69.5t72.5 168t-72.5 168t-175 69.5zM339 286q-47 0 -86 23q24 33 53 58q16 -6 33 -6q39 0 67 27.5t28 66t-28 66t-67.5 27.5t-67.5 -27.5t-28 -65.5q0 -22 10 -41q-30 -28 -53 -60q-33 45 -33 101q0 69 50 118.5t121.5 49.5
t122 -49.5t50.5 -119t-50.5 -119t-121.5 -49.5z" />
    <glyph glyph-name="uniE660" unicode="&#xe660;" 
d="M767 341h-21h-192v-191v-22q0 -79 56.5 -135t135.5 -56h21q80 0 136 56t56 135v22q0 79 -56 135t-136 56zM916 107q0 -50 -44.5 -89t-82.5 -39h-64q-34 0 -81 38.5t-47 89.5v64v128h128h64q42 -3 84.5 -41t42.5 -87v-64zM256 341q-79 0 -135.5 -56t-56.5 -135v-22
q0 -79 56.5 -135t135.5 -56h21q80 0 136 56t56 135v22v191h-192h-21zM426 299v-128v-64q0 -51 -47 -89.5t-80 -38.5h-64q-39 0 -83.5 39t-44.5 89v64q0 49 42.5 87t85.5 41h64h127zM277 831h-21q-79 0 -135.5 -56t-56.5 -136v-21q0 -79 56.5 -135.5t135.5 -56.5h21h192v192
v21q0 80 -56 136t-136 56zM426 597v-128h-127h-64q-43 3 -85.5 40.5t-42.5 87.5v64q0 49 44.5 88.5t83.5 39.5h64q33 0 80 -39t47 -89v-64zM767 831h-21q-79 0 -135.5 -56t-56.5 -136v-21v-192h192h21q80 0 136 56.5t56 135.5v21q0 80 -56 136t-136 56zM916 597
q0 -50 -42.5 -87.5t-84.5 -40.5h-64h-128v128v64q0 50 47 89t81 39h64q38 0 82.5 -39.5t44.5 -88.5v-64z" />
    <glyph glyph-name="uniE661" unicode="&#xe661;" horiz-adv-x="1036" 
d="M947 773h-802q-9 0 -15.5 -6.5t-6.5 -15t6.5 -15t15.5 -6.5h802q18 0 31 -12t13 -30v-677q0 -17 -13 -29.5t-31 -12.5h-846q-19 0 -32 12.5t-13 29.5v635q0 9 -6.5 15t-15.5 6t-15.5 -6t-6.5 -15v-635q0 -35 26 -59.5t63 -24.5h846q37 0 63 24.5t26 59.5v677q0 35 -26 60
t-63 25zM591 540q9 0 15.5 6.5t6.5 15t-6.5 14.5t-15.5 6h-156q-10 0 -16.5 -6t-6.5 -15v-423q0 -8 6.5 -14.5t16.5 -6.5h156q9 0 15.5 6.5t6.5 15t-6.5 14.5t-15.5 6h-134v170h134q9 0 15.5 6t6.5 15t-6.5 15t-15.5 6h-134v169h134zM190 138v311l133 -311q10 -21 23 -21
q9 0 15.5 6.5t6.5 14.5v423q0 9 -6.5 15t-16 6t-16 -6t-6.5 -15v-311l-133 311q-4 8 -6 11.5t-6.5 6.5t-9.5 3q-10 0 -16.5 -6t-6.5 -15v-423q0 -8 6.5 -14.5t16 -6.5t16 6.5t6.5 14.5zM679.5 582q-9.5 0 -16 -6t-6.5 -15v-423q0 -8 6.5 -14.5t16.5 -6.5q8 0 12.5 5.5
t9.5 15.5l77 171l79 -171q4 -7 5.5 -10.5t6 -7t10.5 -3.5q9 0 15.5 6.5t6.5 14.5v423q0 9 -6.5 15t-15.5 6t-15.5 -6t-6.5 -15v-316l-58 128q-4 8 -12.5 11t-16.5 0q-7 -3 -11 -10l-58 -128v315q0 9 -6.5 15t-16 6z" />
    <glyph glyph-name="uniE662" unicode="&#xe662;" horiz-adv-x="1078" 
d="M809 -128h-535q-55 0 -93 38t-38 93v131q-19 0 -27 -8q-27 -27 -66 -27q-15 0 -38 15q-12 15 -12 97q3 31 20.5 40.5t49.5 9.5h939q65 0 65 -54q0 -81 -11 -93q-11 -15 -39 -15q-38 0 -65 27q-8 8 -27 8v-131q5 -54 -32.5 -92.5t-90.5 -38.5zM158 180h8h23v-177
q0 -35 25 -60t60 -25h535q34 0 59 25t25 60v177h23q53 0 81 -23q16 -16 31 -16h4q0 2 2 24t2 38v8h-20h-946q-23 0 -23 -4v-8q0 -50 3 -61h4q7 0 15 3.5t16 11.5q23 27 73 27zM697 626q-13 0 -19 12q-12 18 7 31q21 13 32.5 26.5t16 24t1.5 27t-6.5 26t-12.5 30.5
q-25 51 -4 81q3 9 12.5 11.5t18.5 -3.5q15 -10 8 -31q-5 -10 8 -42q8 -19 11.5 -29t8.5 -29t3 -33t-8 -31.5t-22 -34t-40 -32.5q-7 -4 -15 -4zM520 626q-14 0 -19 12q-12 18 7 31q21 12 32.5 25t15.5 24t2 27t-6 27t-13 31q-26 53 -4 85q3 6 12 7.5t15 -3.5q15 -10 8 -31
q-5 -10 8 -42q8 -19 11.5 -29t8.5 -29t3 -33t-8 -31.5t-21.5 -34t-40.5 -32.5q-3 -4 -11 -4zM331.5 626q-7.5 0 -19.5 12q-3 5 -1.5 14.5t9.5 12.5q20 13 31.5 27t16 24t2 26.5t-6 26t-12.5 30.5q-8 18 -11.5 29.5t-2.5 28.5t10 31q3 6 12 7.5t15 -3.5q14 -10 7 -31
q-5 -10 8 -42q8 -19 11.5 -29t9 -29t3 -33t-8 -31.5t-21.5 -34t-40 -32.5q-4 -4 -11.5 -4zM301 164v-142q0 -11 6.5 -17t16.5 -6q11 0 17 7t6 16v142q0 11 -7 17.5t-16 6.5t-16 -7.5t-7 -16.5v0zM939 326h-796v23q5 77 43 113.5t88 36.5h200l-12 35q-6 18 8 38q19 20 42 20
h43q12 0 24 -6.5t18 -16.5q13 -19 8 -39l-8 -31h212q48 0 85 -36t45 -114v-23zM193 372h696q-18 85 -80 85h-266l23 88h-8h-42l-8 -3l23 -85h-257q-32 0 -53.5 -22.5t-27.5 -62.5zM274 480z" />
    <glyph glyph-name="uniE663" unicode="&#xe663;" 
d="M220 882q-44 -10 -56 -13q-69 -27 -111 -86q-36 -51 -38.5 -114.5t22.5 -117.5t67 -85q17 -12 37 -21t48 -14t49 -8t58.5 -4t56 -1t63 1t58.5 1q0 23 1 69.5t1 69.5q-1 22 -2 66t-1 67q-20 91 -83.5 141t-169.5 49zM403 493q-11 -1 -58.5 -2t-70 -1t-54.5 4.5t-50 14.5
q-46 25 -69 74.5t-12.5 104t55.5 88.5q51 36 102.5 34.5t94 -33.5t57.5 -81q8 -24 9 -56.5t-1.5 -84.5t-2.5 -62zM672 420q70 0 116 5t87 19.5t68 42t46 72.5q29 66 19.5 125t-44 103.5t-91 70t-120.5 24.5q-8 -2 -24 -5t-24 -5q-39 -12 -77 -43q-19 -14 -33 -33.5
t-23 -37.5t-15 -46.5t-9 -48.5t-4 -56t-0.5 -57t1 -64t0.5 -64q25 -1 64 -1.5t63 -0.5zM634 725q26 46 75.5 69t103.5 12.5t89 -54.5q36 -51 34.5 -102.5t-34 -94.5t-81.5 -58q-24 -7 -56.5 -8.5t-84 1t-62.5 3.5q0 11 -1.5 58t-1.5 70t5 54.5t14 49.5zM146 329
q-49 -21 -83 -70t-45 -104.5t7 -113t65 -95.5q45 -36 89 -49q59 -17 109 -7.5t89 40t64 71.5t33 87q0 41 1 129.5t1 133.5q-17 0 -83.5 1.5t-97.5 1t-76.5 -6.5t-72.5 -18zM387 45q-26 -46 -75.5 -69t-103.5 -12.5t-89 55.5q-36 51 -34.5 102.5t34 94t81.5 57.5
q24 7 56.5 8.5t84 -1t62.5 -2.5q0 -11 1.5 -58.5t1.5 -70t-5 -54.5t-14 -50zM808 349q-49 0 -136 0.5t-127 1.5q0 -20 -1.5 -83t-1.5 -95.5t5.5 -77t17.5 -71.5q21 -50 69.5 -85t104.5 -46t114 6.5t97 64.5q36 45 49 89q17 59 7 109.5t-40 89.5t-71.5 64t-86.5 33zM877 -6
q-51 -36 -102.5 -34.5t-94 34t-57.5 81.5q-8 24 -9 56.5t1.5 84t2.5 62.5q11 0 58.5 1.5t70 1t54.5 -5t50 -14.5q46 -25 69 -74.5t12.5 -103.5t-55.5 -89z" />
    <glyph glyph-name="uniE664" unicode="&#xe664;" 
d="M875 344q-13 0 -22 -9.5t-9 -22.5v0v-221q0 -13 -9.5 -22.5t-23.5 -9.5h-638q-13 0 -22.5 9.5t-9.5 22.5v550q0 14 9.5 23.5t22.5 9.5h299q13 0 22 9t9 22.5t-9 22.5t-22 9h-303q-38 0 -65 -27t-27 -64v-559q0 -38 27 -65t65 -27h647q38 0 64.5 27t26.5 65v225
q0 13 -9.5 22.5t-22.5 9.5zM937 560l-207 207l-8 7q-6 3 -15 3q-14 0 -23.5 -9.5t-9.5 -23.5q0 -7 6 -18l141 -143h-145q-164 -20 -236 -114.5t-87 -300.5q0 -14 9.5 -23.5t22.5 -9.5q11 0 20 7.5t12 17.5q8 95 23.5 156.5t46 105.5t76 66t114.5 30h144l-137 -138l-6 -8
q-3 -6 -3 -15q0 -13 9.5 -23t23.5 -10q7 0 17 5l212 212l9 9z" />
    <glyph glyph-name="uniE665" unicode="&#xe665;" 
d="M800 505h-219q-7 0 -1 15q0 3 10 27q20 50 21 84q2 54 -22.5 101t-60.5 46q-22 -1 -37 -6t-23.5 -12t-14 -20.5t-7.5 -23.5t-5.5 -29.5t-5.5 -31.5q-27 -112 -75 -150q-9 -3 -19 -9t-17 -7.5t-32.5 -3t-78.5 -1.5q-19 0 -30 -11.5t-11 -29.5q0 -12 -0.5 -190.5
t-0.5 -191.5q0 -19 8.5 -28t29.5 -9h525q22 0 38 10q11 6 18 14t8 13l2 5l84 356q0 28 -21 55.5t-63 27.5zM213 66v377l84 -1v-376h-84zM842 422l-22 -88l-42 -166l-20 -82q-1 -1 -2.5 -5t-2 -5t-2 -3.5t-2.5 -3t-3 -2t-4 -1.5h-5h-398v382q17 6 42 16q28 21 45 48.5
t39 76.5q9 21 13.5 60.5t14 62t35.5 24.5q16 1 32 -34.5t10 -70.5q-8 -42 -17.5 -65.5t-16.5 -35t-8 -25.5q0 -14 13 -27.5t29 -13.5h230q21 0 33 -15t9 -27z" />
    <glyph glyph-name="uniE666" unicode="&#xe666;" horiz-adv-x="1025" 
d="M176 -128h822q11 0 18.5 7.5t7.5 18.5v994zM756 -39l-173 132l68 84l102 -84l158 190l68 -53z" />
    <glyph glyph-name="uniE667" unicode="&#xe667;" 
d="M301 730q-13 12 -13 29t12.5 29t30 12t30.5 -12l377 -367q12 -12 12 -29t-12 -29l-377 -367q-13 -12 -30.5 -12t-30 12.5t-12.5 29.5t13 29l346 337z" />
    <glyph glyph-name="uniE668" unicode="&#xe668;" 
d="M481 680zM483 328h28v-112h-28v112zM899 832h-775q-25 0 -43 -17.5t-18 -42.5v-776q0 -25 18 -42.5t43 -17.5h775q25 0 42.5 17.5t17.5 42.5v776q0 25 -17.5 42.5t-42.5 17.5zM218.5 633q10.5 5 21.5 1.5t16 -13.5l56 -112q6 -11 2 -22t-14 -16q-6 -3 -13 -3
q-17 0 -25 16l-56 112q-5 10 -1.5 21t14 16zM203 132q-6 0 -11 2q-10 5 -14.5 15.5t0.5 21.5l84 196q4 11 15 15t21.5 -0.5t15 -15t-0.5 -21.5l-84 -196q-7 -17 -26 -17zM427 188v168q0 12 8.5 20t19.5 8h84q12 0 20 -8t8 -20v-168q0 -12 -8 -20t-20 -8h-84q-11 0 -19.5 8
t-8.5 20zM427 468.5q0 11.5 8.5 19.5t19.5 8h84q12 0 20 -8t8 -19.5t-8 -20t-20 -8.5h-84q-11 0 -19.5 8.5t-8.5 20zM736 470q0 12 9 19.5t20.5 6.5t19 -9.5t6.5 -20.5q0 -6 -1.5 -16t-8.5 -37t-18 -56t-32.5 -71.5t-49.5 -83.5q27 -65 74 -70q36 32 36 112q0 12 8.5 20
t20 8t19.5 -8t8 -20q0 -35 -7 -64.5t-15.5 -46.5t-20.5 -30.5t-17.5 -17.5t-10.5 -6q-6 -3 -13 -3q-76 0 -120 75q-39 -50 -84 -95q-8 -8 -19.5 -8t-20 8t-8.5 20t9 20q54 55 98 114q-23 71 -23 146v168h-196v-196q0 -7 -0.5 -19t-5.5 -42.5t-14 -59t-27.5 -63t-44.5 -60.5
q-8 -8 -19.5 -8t-20 8t-8.5 20t8 20q21 21 36.5 50t23 53.5t11.5 50t4.5 35.5t0.5 15v224q0 12 8.5 20t19.5 8h224v112q0 12 8.5 20t20 8t19.5 -8t8 -20v-112h84q-17 0 -25 16l-28 56q-5 10 -1.5 21t14 16t21.5 1.5t16 -13.5l28 -56q6 -11 2 -22t-14 -16q-6 -3 -13 -3h84
q12 0 20 -8t8 -19.5t-8 -20t-20 -8.5h-168v-168q0 -34 9 -82q30 51 49 102t22.5 68t4.5 26z" />
    <glyph glyph-name="uniE669" unicode="&#xe669;" 
d="M752 804h-480q-76 0 -128 -52t-52 -128v-480q0 -76 52 -128t128 -52h480q76 0 128 52t52 128v480q0 76 -52 128t-128 52zM440 228q0 -24 -12 -36t-30 -12h-18q-3 0 -9 3t-9 3q-3 3 -9 6t-9 6v18q3 3 6 9t6 9h24h6v6v78q-6 0 -12 -6q-6 0 -12 -6q-16 -8 -24 0
q-12 12 -12 18q0 22 24 30q3 0 9 3t9 3t9 3t9 3v84h-30q-18 0 -18 6q-6 6 -6 18t6 18t18 6h30v54q0 18 6 18q6 6 18 6q14 0 19 -5t5 -19v-54h30q18 0 18 -6q0 -3 3 -9t3 -9q0 -12 -6 -18t-18 -6h-30v-60l6 6l6 6q20 10 36 -6q6 -6 6 -18q0 -6 -12 -18q-6 -6 -42 -24v-108h6z
M728 396q-6 -6 -18 -6h-42v-186q0 -18 -6 -18q-6 -6 -18 -6t-18 6t-6 18v186h-60q0 -48 -6 -66t-6 -48q0 -18 -12 -42t-24 -36q-9 -14 -21 -17.5t-21 5.5q-12 12 -12 18q0 12 12 24q3 6 9 15t9 15l12 36q0 5 3 21.5t3 26.5v72v84q0 12 12 36q12 12 36 12h36q18 0 30 6
q6 0 15 3t15 3t15 3t15 3h24q12 0 12 -18q3 -5 3 -9.5t-1.5 -8.5t-1.5 -6q-12 -12 -24 -12q-10 -3 -29.5 -6t-30.5 -6q-9 0 -30 -3t-30 -3h-6v-54h156q18 0 18 -6q6 -6 6 -18q-5 -5 -8.5 -10t-5 -6.5t-4.5 -1.5z" />
    <glyph glyph-name="uniE66A" unicode="&#xe66a;" 
d="M812 683q-14 12 -33 12h-3h-21q-55 0 -98 10q-32 8 -67.5 24.5t-53.5 28.5q-12 8 -26.5 8t-27.5 -8q-5 -4 -18.5 -11.5t-43.5 -21.5t-56 -20q-43 -10 -98 -10h-21h-3q-19 0 -34 -12q-15 -15 -15 -35v-143q0 -90 17 -166t41.5 -125.5t59 -89t63.5 -60.5t60.5 -35.5
t44.5 -18t22 -5.5q4 -1 8.5 -1t8.5 1q9 2 21.5 5.5t44.5 18t61.5 35.5t64 60.5t59.5 89t42 125.5t17 166v119q0 13 -4.5 33t-11.5 26zM663 530q-52 -85 -78 -137.5t-42.5 -102t-25.5 -103.5h-97q14 77 49.5 156t98.5 170h-208v67h303v-50zM663 530zM796 -56q65 0 111 46
t46 110v570q0 64 -46 110t-111 46h-569q-65 0 -111 -46t-46 -110v-570q0 -64 46 -110t111 -46h569zM796 -113h-569q-88 0 -150.5 62.5t-62.5 150.5v570q0 88 62.5 150.5t150.5 62.5h569q89 0 151.5 -62.5t62.5 -150.5v-570q0 -88 -62.5 -150.5t-151.5 -62.5v0z" />
    <glyph glyph-name="uniE66B" unicode="&#xe66b;" 
d="M255 754q-99 -69 -149.5 -177t-41 -226.5t78.5 -218.5t177 -150t226.5 -40.5t218.5 78.5t150 177t40.5 226.5t-78.5 218.5t-177 150t-226.5 40.5t-218.5 -78.5zM739 53q-90 -63 -198 -71.5t-206.5 37.5t-161.5 136.5t-71.5 198.5t37.5 206.5t136.5 161.5t198.5 71.5
t206 -37.5t161 -136.5t72 -198.5t-37 -206.5t-137 -161.5zM255 754q-99 -69 -149.5 -177t-41 -226.5t78.5 -218.5t177 -150t226.5 -40.5t218.5 78.5t150 177t40.5 226.5t-78.5 218.5t-177 150t-226.5 40.5t-218.5 -78.5zM739 53q-90 -63 -198 -71.5t-206.5 37.5
t-161.5 136.5t-71.5 198.5t37.5 206.5t136.5 161.5t198.5 71.5t206 -37.5t161 -136.5t72 -198.5t-37 -206.5t-137 -161.5zM301 688q-82 -57 -123.5 -145.5t-33.5 -185.5t65 -179t145.5 -123.5t185.5 -33.5t179 65t123.5 145.5t33.5 185.5t-65 179t-145.5 123.5t-185.5 33.5
t-179 -65zM710 98q-78 -54 -171.5 -61.5t-178 32t-139 118t-62 172t32 178t118 139t172 62t178 -32t139 -118t62 -172t-32 -178t-118.5 -139.5zM301 688q-82 -57 -123.5 -145.5t-33.5 -185.5t65 -179t145.5 -123.5t185.5 -33.5t179 65t123.5 145.5t33.5 185.5t-65 179
t-145.5 123.5t-185.5 33.5t-179 -65zM710 98q-78 -54 -171.5 -61.5t-178 32t-139 118t-62 172t32 178t118 139t172 62t178 -32t139 -118t62 -172t-32 -178t-118.5 -139.5zM644 178l24 -12l25 11l-4 -27l19 -21l-27 -4l-14 -24l-13 24l-26 6l19 19zM315 651l24 -12l25 11
l-3 -27l18 -20l-27 -5l-14 -24l-13 25l-26 5l19 20zM733 277l25 -12l25 11l-4 -27l18 -21l-27 -4l-14 -24l-12 24l-27 6l19 20zM435 707l24 -13l25 11l-4 -27l19 -20l-27 -5l-14 -23l-13 24l-27 6l19 19zM776 395l25 -12l25 11l-4 -27l18 -20l-27 -5l-13 -24l-13 25l-27 5
l19 20zM556 712l25 -12l25 11l-4 -27l18 -21l-27 -4l-13 -24l-13 24l-27 6l19 20zM529 135l25 -12l25 11l-4 -27l18 -20l-27 -5l-14 -24l-12 25l-27 5l19 20zM231 565l24 -12l25 11l-4 -27l19 -21l-27 -4l-14 -24l-13 24l-27 6l20 20zM418 142l24 -13l25 12l-4 -28l19 -20
l-27 -5l-14 -23l-13 24l-26 6l19 19zM198 458l24 -12l25 11l-4 -27l19 -20l-27 -5l-14 -23l-13 24l-26 6l19 19zM264 276l13 9l15 -21l91 64l-28 39l-109 -77l-8 11l122 86l50 -71l-13 -9l-6 9l-92 -63l31 -44q10 -14 23 -5l75 52q14 9 10 20.5t-13 27.5q7 2 16 5
q9 -18 13 -29q7 -20 -14 -35l-81 -56q-23 -16 -40 8zM422 440l1 -5q25 -7 51 -16l-4 -15q-24 10 -45 17q6 -34 5 -70q-6 3 -15 5q3 36 -5 76zM463 313l4 13q13 -3 25 -7q-2 20 -7 45l-45 -31l-7 10l57 40l7 -11q6 -33 9 -57q11 -3 22 -7l-6 -14q-30 11 -59 19zM434 388l6 11
q14 -6 28 -14l-6 -13q-11 7 -28 16zM475 424l27 18l-11 24l-38 -27l-8 11l88 61l7 -11l-37 -26l10 -24l35 24l50 -72l-11 -8l-43 62l-51 -35l44 -63l-11 -8zM517 428l11 8l16 -23q12 -17 16 -32q34 0 66 -4l-3 -16q-29 5 -60 7q1 -2 1 -4q1 -24 -16 -55q-10 3 -16 4
q18 28 17 49q1 19 -16 44zM612 408q6 5 12 11l-65 94l-12 -8l-7 11l74 52l4 -5l67 46l6 -10q31 -62 32 -101q28 -10 56 -7q-1 -7 -1 -18q-25 1 -55 11q-2 -31 -12 -61l-15 5l7 -10l-12 -8l-23 33q-24 -23 -47 -45zM586 498l30 21l-16 23l-30 -21zM609 465l30 21l-16 23
l-30 -21zM624 551l-3 5l-10 -6l60 -87q9 8 16 15q4 -6 7 -11q-8 -7 -15 -14l17 -25q12 28 13 61q-37 16 -79 66zM661 454l-15 22l-30 -21l19 -26q12 11 26 25zM680 591l-39 -28q34 -42 68 -59q-2 32 -29 87z" />
    <glyph glyph-name="uniE66C" unicode="&#xe66c;" 
d="M512 896q-104 0 -199 -40.5t-163.5 -109t-109 -163.5t-40.5 -199t40.5 -199t109 -163.5t163.5 -109t199 -40.5t199 40.5t163.5 109t109 163.5t40.5 199t-40.5 199t-109 163.5t-163.5 109t-199 40.5z" />
    <glyph glyph-name="uniE66D" unicode="&#xe66d;" 
d="M226 470h102v22h-102v28l-53 -8v-20h-102v-22h102v-70h-109v-21h70l-67 -132h264l-46 105h-55l37 -84h-134l57 111h145v21h-109v70zM485 465h-27v28l27 3v20l-111 -11v-20l41 5v-25h-41v-19h41v-197h43v197h27v19zM374 249h29l8 184h-29zM539 506h-37l-13 -152h39z
M460 433l7 -184h25l-8 184h-24zM596 506l12 -115h37l-11 115h-38zM591 521l-46 -8v-159h28l-72 -105h56l88 129h-54v143zM767 422l57 32l57 -32h78l-96 53l75 41h-78l-36 -19l-36 19h-78l76 -41l-97 -53h78zM851 409v18l-52 -9v-9h-110v-19h110v-110l-12 -32h64v142h109v19
h-109zM874 379l33 -131h50l-33 131h-50zM689 248h49l33 131h-49z" />
    <glyph glyph-name="uniE66E" unicode="&#xe66e;" 
d="M610 730l-107 -217q-13 -26 -21 -49h-1q-11 28 -20 47l-106 219h-90l152 -282h-124v-62h147v-87h-147v-62h147v-125h79v125h143v62h-143v87h143v62h-122l154 282h-84z" />
    <glyph glyph-name="uniE66F" unicode="&#xe66f;" 
d="M512.5 765q-103.5 0 -191.5 -51t-139 -139t-51 -191.5t51 -191.5t139 -139t191.5 -51t191.5 51t139 139t51 191.5t-51 191.5t-139 139t-191.5 51zM680 268q10 -11 10 -26t-10.5 -25.5t-25.5 -10.5t-26 10l-116 116l-115 -116q-11 -10 -26 -10t-26 10.5t-11 25.5t11 26
l116 116l-116 115q-11 11 -11 26t11 25.5t26 10.5t26 -10l115 -116l116 116q11 10 26 10t25.5 -10.5t10.5 -25.5t-10 -26l-116 -115z" />
    <glyph glyph-name="uniE670" unicode="&#xe670;" 
d="M821 450h-84v155q0 94 -60.5 160.5t-145.5 66.5h-38q-85 0 -145.5 -66.5t-60.5 -160.5v-155h-84q-17 0 -29 -13t-12 -32v-423q0 -19 12 -32t29 -13h618q17 0 29 13t12 32v423q0 19 -12 32t-29 13zM512 16q-32 0 -55 25t-23 61q0 46 36 72v148q0 18 12 30.5t29 12.5
t29 -12.5t12 -30.5v-147q38 -25 38 -73q0 -36 -23 -61t-55 -25zM671 450h-310v138q0 63 41.5 107.5t99.5 44.5h27q59 0 100.5 -44.5t41.5 -107.5v-138z" />
    <glyph glyph-name="uniE671" unicode="&#xe671;" 
d="M507 860q99 0 169 -68.5t70 -166t-70 -166.5t-169 -69t-169 69t-70 166.5t70 166t169 68.5zM507 860q99 0 169 -68.5t70 -166t-70 -166.5t-169 -69t-169 69t-70 166.5t70 166t169 68.5zM418 312h199q128 0 218.5 -89t90.5 -214v-20q0 -16 -10.5 -28t-33 -19t-46.5 -11.5
t-64.5 -6.5t-72 -2.5t-82.5 -0.5h-199h-84q-27 0 -70.5 2t-65.5 6.5t-46 11.5t-33.5 19t-9.5 29v20q0 125 90.5 214t218.5 89z" />
    <glyph glyph-name="uniE672" unicode="&#xe672;" 
d="M726 823h-428q-23 0 -38.5 -15.5t-15.5 -38.5v-754q0 -23 15.5 -38.5t38.5 -15.5h428q23 0 38.5 15.5t15.5 38.5v754q0 23 -15.5 38.5t-38.5 15.5zM391 769h242q5 0 9 -4t4 -9.5t-4 -9.5t-9 -4h-242q-5 0 -9 4t-4 9.5t4 9.5t9 4zM512 -12q-11 0 -19 8t-8 19t8 19t19 8
t19 -8t8 -19t-8 -19t-19 -8zM726 69h-428v619h428v-619z" />
    <glyph glyph-name="uniE673" unicode="&#xe673;" 
d="M866 467l-312 -250l-307 -140l-56 419l-8 -29l256 -267l1 -1q31 -30 73 -30t72 30l2 1l256 267h23zM883 516h-64l-271 -282q-15 -15 -37 -15t-37 15l-271 282h-62q-14 0 -24 -9.5t-10 -23.5v-512q0 -14 10 -23.5t24 -9.5h740q14 0 24 9.5t10 23.5v512q1 14 -8.5 23.5
t-23.5 9.5v0zM816 781v-265q0 -21 14.5 -35t35.5 -14l-5 29l-363 -307l-335 307q5 0 15.5 -0.5t14 -0.5t9 2t7 6.5t1.5 12.5v265h606zM816 830h-606q-21 0 -35.5 -14t-14.5 -35v-265h-17q-14 0 -24 -9.5t-10 -23.5v-512q0 -14 10 -23.5t24 -9.5h740q14 0 24 9.5t10 23.5v512
q0 14 -10 23.5t-24 9.5h-17v265q0 21 -14.5 35t-35.5 14v0zM260 533v49h505v-49h-505zM260 698h505v-49h-505v49zM260 698z" />
    <glyph glyph-name="uniE674" unicode="&#xe674;" 
d="M836 90v-3q0 -47 -28.5 -81t-68.5 -34h-124q-40 0 -68.5 34t-28.5 81v3q0 47 28.5 81t68.5 34h87q-20 -23 -31 -53h-56q-22 0 -37.5 -18t-15.5 -44v-3q0 -26 15.5 -44t37.5 -18h124q22 0 37.5 18t15.5 44v3q0 7 -2 15h45q1 -8 1 -15v0zM699 85q0 -7 1 -15h46q-2 8 -2 15
v3q0 26 15.5 44t37.5 18h123q22 0 37.5 -18t15.5 -44v-3q0 -26 -15.5 -44t-37.5 -18h-56q-10 -30 -30 -53h86q41 0 69.5 34t28.5 81v3q0 47 -28.5 81t-69.5 34h-123q-40 0 -69 -33.5t-29 -81.5v-3v0zM452 89v4q0 65 37.5 111t90.5 46h106q-48 32 -101 50q63 36 101.5 101.5
t38.5 142.5q0 117 -84.5 201t-201 84t-201 -84t-84.5 -201q0 -77 38.5 -142.5t101.5 -101.5q-97 -33 -170.5 -109.5t-104.5 -176.5q-6 -19 -10 -39q-1 -7 -2 -12q-1 -3 4 -8t9.5 -9t5.5 -4h11h15h481q-36 18 -58.5 58t-22.5 89zM452 89z" />
    </font>
</defs>
</svg>
